<svg xmlns="http://www.w3.org/2000/svg" viewBox="0 0 283.46 283.46"><defs><style>.cls-1{fill:none;stroke:#a3cc7a;stroke-miterlimit:10;}</style></defs><title>background</title><g id="vine"><path class="cls-1" d="M220.17,0c0,124.33-156,20.33-156,141.73,0,121.94,156,25.27,156,141.73"/></g><g id="leaf"><path class="cls-1" d="M84.59,150.71c-4.52,11.6-8.65,19.4-13.86,26.79"/><path class="cls-1" d="M84.51,150.67c3.39,14.15-1.23,22.63-13.85,26.79C66.76,164.75,71,156.08,84.51,150.67Z"/><line class="cls-1" x1="85.53" y1="157.2" x2="81.28" y2="158.69"/><line class="cls-1" x1="84.78" y1="164.48" x2="77.78" y2="165.96"/><line class="cls-1" x1="81.01" y1="171.4" x2="74.26" y2="172.15"/><line class="cls-1" x1="79.53" y1="162.46" x2="75.41" y2="155.92"/><line class="cls-1" x1="76.03" y1="169.15" x2="70.65" y2="162.13"/><path class="cls-1" d="M154.37,42.49c5.7,13.38,2.56,22.51-9.19,28.72C139.21,59.34,142,50.08,154.37,42.49Z"/><path class="cls-1" d="M154.37,42.49c-5,11.39-7.64,19.82-9.19,28.72"/><line class="cls-1" x1="147.81" y1="59.84" x2="156.76" y2="56.88"/><line class="cls-1" x1="150.62" y1="51.61" x2="156.52" y2="48.98"/><line class="cls-1" x1="145.96" y1="67.21" x2="153.52" y2="64.52"/><line class="cls-1" x1="149.42" y1="54.93" x2="146.1" y2="49.39"/><line class="cls-1" x1="146.81" y1="63.38" x2="142.27" y2="57.35"/><path class="cls-1" d="M119.87,75.34c-3.81,11.85-7.46,19.89-12.21,27.57"/><path class="cls-1" d="M119.8,75.3c4.23,13.92.13,22.66-12.22,27.58C102.92,90.43,106.64,81.52,119.8,75.3Z"/><line class="cls-1" x1="121.21" y1="81.76" x2="117.05" y2="83.5"/><line class="cls-1" x1="120.9" y1="89.07" x2="114" y2="90.97"/><line class="cls-1" x1="117.56" y1="96.21" x2="110.86" y2="97.36"/><line class="cls-1" x1="115.54" y1="87.36" x2="111.03" y2="81.09"/><line class="cls-1" x1="112.45" y1="94.26" x2="106.65" y2="87.57"/><path class="cls-1" d="M197.67,7.33c8.25,9.32,13.31,16.56,17.49,24.56"/><path class="cls-1" d="M197.6,7.38c14.13,3.45,19.56,11.43,17.49,24.56C202,29.61,196.24,21.86,197.6,7.38Z"/><line class="cls-1" x1="203.87" y1="9.45" x2="203.25" y2="13.92"/><line class="cls-1" x1="210" y1="13.45" x2="208.12" y2="20.35"/><line class="cls-1" x1="214.44" y1="19.96" x2="212.02" y2="26.31"/><line class="cls-1" x1="205.8" y1="17.19" x2="198.11" y2="17.87"/><line class="cls-1" x1="210.16" y1="23.37" x2="201.45" y2="24.94"/><path class="cls-1" d="M46.49,110.68c14.1,3.57,19.46,11.6,17.28,24.71C50.71,132.94,45,125.15,46.49,110.68Z"/><path class="cls-1" d="M46.49,110.68c6,10.9,11.14,18.08,17.28,24.71"/><line class="cls-1" x1="56.32" y1="126.4" x2="59.39" y2="117.49"/><line class="cls-1" x1="51.47" y1="119.18" x2="52.96" y2="112.9"/><line class="cls-1" x1="61.06" y1="132.34" x2="63.5" y2="124.7"/><line class="cls-1" x1="53.39" y1="122.15" x2="46.97" y2="121.44"/><line class="cls-1" x1="58.52" y1="129.35" x2="50.98" y2="129.31"/><path class="cls-1" d="M206.05,48.8c11,9.46,12.28,19,4.5,29.81C199.93,70.62,198.28,61.1,206.05,48.8Z"/><path class="cls-1" d="M206.05,48.8c.54,12.43,1.94,21.15,4.5,29.81"/><line class="cls-1" x1="207.86" y1="67.25" x2="214.57" y2="60.63"/><line class="cls-1" x1="206.73" y1="58.63" x2="210.85" y2="53.67"/><line class="cls-1" x1="209.47" y1="74.68" x2="215.05" y2="68.92"/><line class="cls-1" x1="207.12" y1="62.14" x2="201.7" y2="58.65"/><line class="cls-1" x1="208.53" y1="70.87" x2="201.79" y2="67.48"/><path class="cls-1" d="M119.12,211c-8,9.55-14.39,15.62-21.68,21"/><path class="cls-1" d="M119.06,210.91c-1.3,14.49-8.39,21.05-21.68,21C97.74,218.58,104.54,211.72,119.06,210.91Z"/><line class="cls-1" x1="117.95" y1="217.42" x2="113.44" y2="217.47"/><line class="cls-1" x1="114.91" y1="224.07" x2="107.8" y2="223.24"/><line class="cls-1" x1="109.13" y1="229.43" x2="102.49" y2="227.99"/><line class="cls-1" x1="110.58" y1="220.48" x2="108.77" y2="212.98"/><line class="cls-1" x1="105.13" y1="225.71" x2="102.27" y2="217.33"/><path class="cls-1" d="M156.85,188.78c12.06,8.13,14.39,17.51,7.9,29.1C153.29,211.16,150.55,201.9,156.85,188.78Z"/><path class="cls-1" d="M156.85,188.78c2,12.29,4.36,20.79,7.9,29.1"/><line class="cls-1" x1="160.78" y1="206.91" x2="166.68" y2="199.56"/><line class="cls-1" x1="158.66" y1="198.47" x2="162.18" y2="193.06"/><line class="cls-1" x1="163.23" y1="214.1" x2="168.11" y2="207.73"/><line class="cls-1" x1="159.46" y1="201.92" x2="153.66" y2="199.07"/><line class="cls-1" x1="161.86" y1="210.42" x2="154.77" y2="207.84"/><path class="cls-1" d="M180.88,247.67c10-10.56,19.63-11.31,30-3C202.37,254.87,192.78,256,180.88,247.67Z"/><path class="cls-1" d="M180.88,247.67c12.45.08,21.22-.88,30-3"/><line class="cls-1" x1="199.4" y1="246.78" x2="193.12" y2="239.75"/><line class="cls-1" x1="190.74" y1="247.48" x2="185.98" y2="243.11"/><line class="cls-1" x1="206.9" y1="245.54" x2="201.42" y2="239.68"/><line class="cls-1" x1="194.26" y1="247.26" x2="190.51" y2="252.51"/><line class="cls-1" x1="203.05" y1="246.29" x2="199.33" y2="252.86"/><path class="cls-1" d="M235,243.77c-5.07,11.37-9.57,19-15.14,26.08"/><path class="cls-1" d="M234.89,243.73c2.7,14.3-2.33,22.54-15.14,26.08C216.47,256.93,221.14,248.48,234.89,243.73Z"/><line class="cls-1" x1="235.6" y1="250.3" x2="231.27" y2="251.58"/><line class="cls-1" x1="234.49" y1="257.53" x2="227.42" y2="258.67"/><line class="cls-1" x1="230.39" y1="264.26" x2="223.61" y2="264.68"/><line class="cls-1" x1="229.35" y1="255.26" x2="225.55" y2="248.53"/><line class="cls-1" x1="225.52" y1="261.78" x2="220.49" y2="254.5"/></g></svg>