<svg xmlns="http://www.w3.org/2000/svg" viewBox="0 0 401 176"><defs><style>.cls-1,.cls-3{fill:#fff;}.cls-2{fill:#999;}.cls-3{stroke:#999;stroke-miterlimit:10;stroke-width:5px;}</style></defs><title>chart</title><g id="レイヤー_1" data-name="レイヤー 1"><path class="cls-1" d="M277.61,164.45c-4.05-9.43-7.23-19.17-3.19-26.43,4-7.1,12.16-8.33,21.67-9.76,13.39-2,31.73-4.77,52.33-22.29,32.49-32.16,32.67-48.38,31.23-53.87-1.2-4.56-4.92-7.72-11.07-9.4-15.23-4.16-42.12,2.61-60.8,21.13L297.22,53.17C318.07,32.5,349.75,22,372.54,28.23c11.36,3.1,19,10.23,21.62,20.07,4.57,17.45-7.66,41.15-35.39,68.54l-.4.36c-23.95,20.46-45.68,23.73-60.05,25.89-3.94.59-9.26,1.39-10.78,2.33-.11.84-.05,4,3.85,13.13Z"/><path class="cls-2" d="M274,168.72l-1-2.3c-4.55-10.61-8.05-21.69-3-30.83s15.39-10.79,25.29-12.28c12.76-1.91,30.24-4.54,49.7-21,32.18-31.89,30.45-46.34,29.77-48.91s-3.25-4.67-7.55-5.85c-13.85-3.78-38.57,2.61-56,19.86l-1.77,1.76L291.92,51.38l1.78-1.76c22-21.85,55.75-32.88,80.15-26.22C387,27,395.94,35.39,399,47c5.12,19.55-7.23,44.23-36.71,73.36l-.6.55c-25.12,21.46-48.6,25-62.63,27.1-1.89.28-4.08.61-5.89,1a67.37,67.37,0,0,0,2.82,7.59l1,2.29Zm84.84-127.2a37,37,0,0,1,9.74,1.18c6.15,1.68,9.87,4.84,11.07,9.4,1.43,5.48,1.27,21.68-31.16,53.8l-.14.13c-20.58,17.47-38.89,20.22-52.26,22.23-9.51,1.43-17.71,2.66-21.67,9.76-3.72,6.67-1.33,15.43,2.22,24.13l13.79-5.91a46.72,46.72,0,0,1-2.75-8.72l-.37-2.23,2.17-.6c2.2-.6,5.72-1.13,8.84-1.6,13.5-2,36.1-5.42,60.05-25.89l.47-.43c28.05-27.72,40-50.78,35.32-68.47-2.58-9.84-10.26-17-21.62-20.07-22.15-6.05-52.68,3.69-73.52,23.21L309.59,62.1C324.53,48.25,344.09,41.52,358.84,41.52Z"/><path class="cls-3" d="M157,3.5H316.5s-6,169-111,169H153"/><path class="cls-3" d="M162.5,3.5H3s6,169,111,169h52.5"/></g><g id="chart"><path d="M100.07,32.8h3.47l1.89,0a.11.11,0,0,1,.12.12v.51c0,.09,0,.13-.12.13l-1.89,0h-.33v1l0,1.22c0,.08,0,.12-.14.12h-.55a.11.11,0,0,1-.12-.12l0-1.22v-1H100a5.57,5.57,0,0,1-1.42,3.13c-.1.11-.16.16-.21.16s-.1-.05-.21-.16a1.32,1.32,0,0,0-.48-.3,4.51,4.51,0,0,0,1.4-2.12,7.54,7.54,0,0,0,.2-1.91,11.48,11.48,0,0,0-.09-1.7,4.71,4.71,0,0,1,.94.31,17.2,17.2,0,0,0,3.53-.65,2.83,2.83,0,0,0,.88-.4,3,3,0,0,1,.63.51.35.35,0,0,1,.12.23c0,.08-.07.13-.22.15l-.3,0a1.55,1.55,0,0,0-.31.07,33,33,0,0,1-4.41.77Zm2.74,10.55a6.55,6.55,0,0,1,.69.41.29.29,0,0,1,.12.2.17.17,0,0,1-.16.18,1.23,1.23,0,0,0-.49.2,15.2,15.2,0,0,1-4.26,1.6l-.2,0c-.07,0-.14-.08-.21-.25a2.11,2.11,0,0,0-.36-.48,13.11,13.11,0,0,0,4.29-1.39A2.36,2.36,0,0,0,102.81,43.35Zm.25-7.06h5.49l2.54,0c.09,0,.13,0,.13.12l0,1.84v3l0,1.82c0,.08,0,.12-.13.12l-2.54,0h-5.49l-2.52,0c-.1,0-.14,0-.14-.12l0-1.82v-3l0-1.84c0-.08,0-.12.14-.12Zm-1.84,2h9.17V37h-9.17Zm0,.64v1.39h9.17V39Zm0,2v1.46h9.17V41Zm8.57-7.51h-2.64a4.08,4.08,0,0,1-1.28,2.29c-.11.1-.18.15-.22.15a.56.56,0,0,1-.22-.15,2.15,2.15,0,0,0-.46-.28,3.65,3.65,0,0,0,1.52-3.14,11.78,11.78,0,0,0-.08-1.79,5.05,5.05,0,0,1,.94.33A18.57,18.57,0,0,0,111,30.2a2.78,2.78,0,0,0,.81-.38,3.58,3.58,0,0,1,.64.55.29.29,0,0,1,.1.21c0,.08-.06.12-.2.12a3.48,3.48,0,0,0-.64.1,33.15,33.15,0,0,1-4.46.77v.81c0,.18,0,.32,0,.42h4l2.11,0a.11.11,0,0,1,.12.12v.51c0,.09,0,.13-.12.13l-2.11,0h-.72v.94l0,1.22c0,.09,0,.13-.12.13h-.58c-.08,0-.12,0-.12-.13l0-1.22Zm3.71,11.73a1.64,1.64,0,0,0-.34.5c-.08.18-.15.27-.22.27a.8.8,0,0,1-.21,0,13.73,13.73,0,0,1-4.65-1.87S108,44,108,44s0-.11.12-.18l.21-.22c.09-.08.15-.12.2-.12l.09,0A12.09,12.09,0,0,0,113.5,45.21Z"/><path d="M118.88,30.49h2l1.8,0a.11.11,0,0,1,.12.12l0,1.64v2l0,1.66a.11.11,0,0,1-.12.12l-1.8,0h-3.25v6l0,3.67c0,.09,0,.13-.12.13h-.64c-.08,0-.12,0-.12-.13l0-3.67v-7.7l0-3.7a.11.11,0,0,1,.12-.12Zm-1.26,2.35H122V31.18h-4.35Zm0,.67v1.76H122V33.51Zm4,8.88v1.28c0,.09,0,.13-.12.13h-.56a.12.12,0,0,1-.13-.13l0-2.84V39.59l0-1.75c0-.08,0-.12.13-.12l1.82,0h1.9l1.84,0a.11.11,0,0,1,.12.12l0,1.46v1.33l0,2.74a.11.11,0,0,1-.12.12h-.58a.11.11,0,0,1-.12-.12v-1Zm0-.7h4.18V38.46h-4.18Zm8.43-5.76H126.7l-1.93,0a.11.11,0,0,1-.12-.12V30.58a.11.11,0,0,1,.12-.12l1.93,0h2.15l1.92,0c.08,0,.13,0,.13.12l0,2.6v8.39l0,2.37a2.4,2.4,0,0,1-.12.88,1,1,0,0,1-.33.4,3.08,3.08,0,0,1-1.74.31h-.39c-.14,0-.23,0-.25,0a.52.52,0,0,1-.09-.23,2.08,2.08,0,0,0-.29-.62,9.14,9.14,0,0,0,1.33.08,1.27,1.27,0,0,0,.87-.2,1.15,1.15,0,0,0,.16-.74Zm0-3.09V31.18h-4.59v1.66Zm0,2.43V33.51h-4.59v1.76Z"/><path d="M136.55,31.4a4.8,4.8,0,0,1,1,.43c.13.07.2.14.2.21a.49.49,0,0,1-.13.32,2,2,0,0,0-.32.74,26.74,26.74,0,0,0-.89,6.36,16,16,0,0,0,.31,3.45c.17-.4.41-.94.71-1.62s.54-1.19.69-1.54a2.91,2.91,0,0,0,.36.55.29.29,0,0,1,.07.17.64.64,0,0,1-.08.27q-.62,1.41-1.2,2.91a.91.91,0,0,0-.09.41l.05.36a.15.15,0,0,1-.09.14,2.49,2.49,0,0,1-.62.14c-.07,0-.13-.06-.18-.16a10.8,10.8,0,0,1-.62-2.54,19.86,19.86,0,0,1-.19-2.63,31.26,31.26,0,0,1,.79-6.23,7.38,7.38,0,0,0,.19-1.54Zm3.95,9.05.76,0c.09,0,.13,0,.13.14,0,1.37,1.14,2,3.3,2a26.2,26.2,0,0,0,3.58-.25h.07c.07,0,.1,0,.12.17a5.79,5.79,0,0,1,0,.61c0,.09,0,.14,0,.16a.29.29,0,0,1-.16.05,29.89,29.89,0,0,1-3.33.19,8.81,8.81,0,0,1-2.31-.25,3.34,3.34,0,0,1-1.37-.76A2.79,2.79,0,0,1,140.5,40.45Zm.6-6v-.72a.23.23,0,0,1,.2-.25,22.25,22.25,0,0,1,3.8-.33q1.52,0,2.49.09c.15,0,.22.08.22.19v.61c0,.1,0,.15-.1.15h-.07c-.81-.06-1.72-.1-2.74-.1A22.42,22.42,0,0,0,141.1,34.47Z"/><path d="M155.07,39.28l.54.28c.06,0,.1.08.1.12a.19.19,0,0,1-.05.1,2.58,2.58,0,0,0-.46,1.44q0,2.37,4.66,2.37a23.11,23.11,0,0,0,5.24-.53l.1,0c.05,0,.09.05.11.14a4.94,4.94,0,0,1,.12.65v.05c0,.07-.07.13-.2.16a26.47,26.47,0,0,1-5.46.48q-5.4,0-5.4-3.3A3.37,3.37,0,0,1,155.07,39.28Zm.54-6.7a19.74,19.74,0,0,0,4.25.4c1.47,0,2.82-.06,4-.18h.05a.18.18,0,0,1,.19.16,3.06,3.06,0,0,1,.05.56c0,.14-.09.22-.26.23a14.18,14.18,0,0,0-4.65,2.15A.42.42,0,0,1,159,36a.24.24,0,0,1-.15-.06,1.45,1.45,0,0,0-.54-.27,33.38,33.38,0,0,1,3.32-1.91c-.66,0-1.38.06-2.17.06a19.43,19.43,0,0,1-3.78-.35c-.09,0-.13-.09-.13-.22C155.59,32.94,155.6,32.73,155.61,32.58Z"/><path d="M176,34a19.24,19.24,0,0,0,3-.77l.1,0c.06,0,.09,0,.11.13,0,.28.05.46.05.54s-.05.22-.14.25a29.88,29.88,0,0,1-3.32.77,74.81,74.81,0,0,1-3.49,9.7c0,.07-.07.1-.12.1l-.09,0-.69-.31a.1.1,0,0,1-.06-.09.26.26,0,0,1,0-.11,52,52,0,0,0,3.41-9.14,31.75,31.75,0,0,1-3.79.23c-.16,0-.24,0-.26-.14a6.09,6.09,0,0,1-.1-.79c.33,0,.68.05,1.06.05a24.75,24.75,0,0,0,3.35-.25c.19-.73.35-1.47.5-2.24a6.3,6.3,0,0,0,.16-1.34,3.28,3.28,0,0,0,0-.34,4.31,4.31,0,0,1,1.27.36.17.17,0,0,1,.1.17.46.46,0,0,1-.14.28,1.71,1.71,0,0,0-.31.7c-.08.28-.19.68-.32,1.21S176,33.8,176,34Zm1.39,7.4a2.89,2.89,0,0,1,.5,0H178c.09,0,.14.05.16.16a2.11,2.11,0,0,0,1.06,1.88,5.92,5.92,0,0,0,2.56.4,14.75,14.75,0,0,0,2.53-.22h.09c.07,0,.12.05.13.14a4.46,4.46,0,0,1,0,.63.17.17,0,0,1-.18.19,11.94,11.94,0,0,1-2.28.2,10.45,10.45,0,0,1-2.44-.22,3.6,3.6,0,0,1-1.45-.73A3,3,0,0,1,177.34,41.44Zm1.32-3.87a5.86,5.86,0,0,1,0-.72c0-.11.07-.18.2-.21a12.15,12.15,0,0,1,2.8-.36,21.89,21.89,0,0,1,2.54.15.23.23,0,0,1,.21.21s0,.09,0,.15a3.94,3.94,0,0,1,0,.4c0,.12-.06.18-.13.18h-.06a16.75,16.75,0,0,0-2.58-.18A11.84,11.84,0,0,0,178.66,37.57Z"/><path d="M190.26,35.78h.34a24.23,24.23,0,0,0,3.4-.4c1.63-.28,2.78-.5,3.44-.66a1.1,1.1,0,0,0,.45-.2.3.3,0,0,1,.18-.06.4.4,0,0,1,.16.07,3.7,3.7,0,0,1,.54.45.35.35,0,0,1,.11.22.26.26,0,0,1-.16.24,2.68,2.68,0,0,0-.67.48c-.52.53-1.25,1.28-2.17,2.26s-1.6,1.71-1.88,2a2.28,2.28,0,0,1,1.28-.36c1.05,0,1.71.7,2,2.09a2.55,2.55,0,0,0,.82,1.7,4.23,4.23,0,0,0,1.95.3,13.36,13.36,0,0,0,2.56-.27h.07c.06,0,.1.06.11.17a3.7,3.7,0,0,1,.06.63q0,.15-.21.18a13.76,13.76,0,0,1-2.48.24,4.85,4.85,0,0,1-2.77-.58,2.73,2.73,0,0,1-.92-1.75,4.12,4.12,0,0,0-.53-1.56,1,1,0,0,0-.87-.46,3.16,3.16,0,0,0-2.22,1.08A38,38,0,0,0,190,44.64a.16.16,0,0,1-.11,0,.18.18,0,0,1-.12,0,5.48,5.48,0,0,1-.5-.46.13.13,0,0,1,0-.1.24.24,0,0,1,.08-.18l3.43-3.52,4.5-4.82-5.46,1.11a2.69,2.69,0,0,0-.65.24.67.67,0,0,1-.31.09c-.06,0-.12-.06-.19-.17A4.51,4.51,0,0,1,190.26,35.78Zm3.35-5.5a23.37,23.37,0,0,0,4.49,1.46c.08,0,.13.06.13.11a1.05,1.05,0,0,1,0,.13,5.36,5.36,0,0,1-.2.57.15.15,0,0,1-.16.11h0a22.54,22.54,0,0,1-4.39-1.45.13.13,0,0,1-.1-.13.23.23,0,0,1,0-.07C193.36,30.89,193.45,30.65,193.61,30.28Z"/><path d="M206.69,33.86h.18a13.27,13.27,0,0,0,2-.19q5.6-.87,11.08-1.54H220a.19.19,0,0,1,.21.13,2.82,2.82,0,0,1,.08.68c0,.11-.06.17-.2.18a7.89,7.89,0,0,0-2.79.6,9.51,9.51,0,0,0-3.4,2.43,5.21,5.21,0,0,0-1.2,3.24,3.48,3.48,0,0,0,2,3.31,9.61,9.61,0,0,0,3.35.86c.17,0,.26.06.26.14a4,4,0,0,1-.07.65c0,.15-.1.22-.2.22H218a8.54,8.54,0,0,1-4.44-1.46,4.23,4.23,0,0,1-1.75-3.62,5.68,5.68,0,0,1,1.4-3.73,10.3,10.3,0,0,1,3.34-2.38v-.06c-3.2.48-5.81.93-7.83,1.37a3.39,3.39,0,0,0-1,.29.75.75,0,0,1-.32.12.26.26,0,0,1-.24-.14A6.34,6.34,0,0,1,206.69,33.86Z"/><path d="M53.82,77.48a4.22,4.22,0,0,0,1,.1l.76,0c.5,0,1.29-.16,2.37-.34a2.46,2.46,0,0,0,1.08-.4.29.29,0,0,1,.17-.08.24.24,0,0,1,.14.06,3.18,3.18,0,0,1,.49.42.32.32,0,0,1,.1.22c0,.08-.06.15-.19.21a3,3,0,0,0-1,.71c-.15.14-.45.46-.92,1a8.47,8.47,0,0,0-2.35,5.9,4.11,4.11,0,0,0,.91,2.89,2.87,2.87,0,0,0,2.24.89,4.72,4.72,0,0,0,2-.36A3.94,3.94,0,0,0,62,87.45q1.53-1.94,1.53-5.9a19.72,19.72,0,0,0-.15-2.71s-.08-.33-.21-.88a5.3,5.3,0,0,0-.17-.52.26.26,0,0,1,0-.11.14.14,0,0,1,.12-.14A2.63,2.63,0,0,1,63.7,77h.06a.13.13,0,0,1,.15.12,13.75,13.75,0,0,0,1.36,3.13A18.07,18.07,0,0,0,68.19,84a.14.14,0,0,1,.06.1.38.38,0,0,1-.07.17,5.57,5.57,0,0,1-.43.49.25.25,0,0,1-.11,0,.19.19,0,0,1-.15-.1,18.63,18.63,0,0,1-3.27-5l-.09,0a22.59,22.59,0,0,1,.18,2.69,12,12,0,0,1-.46,3.44,6.26,6.26,0,0,1-1.32,2.52,4.92,4.92,0,0,1-3.73,1.6,3.89,3.89,0,0,1-3.29-1.43,5.29,5.29,0,0,1-.94-3.29,9.08,9.08,0,0,1,2-5.55,11.37,11.37,0,0,1,1.63-1.75l-3.23.55-.38.12a.91.91,0,0,1-.22,0c-.09,0-.17-.07-.22-.22A5,5,0,0,1,53.82,77.48Zm13.57-2.34a1.74,1.74,0,0,1,1.75,1.75,1.74,1.74,0,1,1-1.75-1.75Zm0,.63a1.06,1.06,0,0,0-.82.36,1.13,1.13,0,0,0-.29.76,1.11,1.11,0,1,0,2.22,0,1.05,1.05,0,0,0-.36-.83A1.08,1.08,0,0,0,67.39,75.77Z"/><path d="M73.05,83.11a16.79,16.79,0,0,0,2.73-.68,17.24,17.24,0,0,1,4.72-1,3.75,3.75,0,0,1,2.81,1,3.08,3.08,0,0,1,.88,2.3A3.86,3.86,0,0,1,83.57,87a4.76,4.76,0,0,1-1.66,1.38,11.75,11.75,0,0,1-3.78,1.21h-.08a.22.22,0,0,1-.2-.14,2,2,0,0,0-.54-.59,12.14,12.14,0,0,0,4-1.15,3.21,3.21,0,0,0,2-3,2.24,2.24,0,0,0-.91-2,3.43,3.43,0,0,0-2-.51A15.88,15.88,0,0,0,75,83.65a5.38,5.38,0,0,0-.82.39.6.6,0,0,1-.31.19.33.33,0,0,1-.26-.16A6.09,6.09,0,0,1,73.05,83.11Z"/><path d="M95,79a19.24,19.24,0,0,0,3-.77l.1,0c.06,0,.1,0,.11.13,0,.28,0,.46,0,.54s0,.22-.14.25a29.74,29.74,0,0,1-3.31.77,76.23,76.23,0,0,1-3.5,9.7c0,.07-.07.1-.12.1l-.09,0-.69-.31a.1.1,0,0,1-.06-.09.26.26,0,0,1,0-.11,52,52,0,0,0,3.41-9.14A31.61,31.61,0,0,1,90,80.3c-.15,0-.24,0-.26-.14a6.09,6.09,0,0,1-.1-.79c.33,0,.68,0,1.06,0A24.75,24.75,0,0,0,94,79.17c.19-.73.35-1.47.5-2.24a6.3,6.3,0,0,0,.16-1.34,3.28,3.28,0,0,0,0-.34,4.31,4.31,0,0,1,1.27.36.17.17,0,0,1,.1.17.41.41,0,0,1-.14.28,1.71,1.71,0,0,0-.31.7c-.08.28-.19.68-.32,1.21S95,78.8,95,79Zm1.39,7.4a2.89,2.89,0,0,1,.5,0H97c.09,0,.14,0,.16.16a2.11,2.11,0,0,0,1.06,1.88,5.92,5.92,0,0,0,2.56.4,14.75,14.75,0,0,0,2.53-.22h.1c.07,0,.11,0,.12.14a4.46,4.46,0,0,1,0,.63.17.17,0,0,1-.17.19,12.12,12.12,0,0,1-2.29.2,10.45,10.45,0,0,1-2.44-.22,3.6,3.6,0,0,1-1.45-.73A3,3,0,0,1,96.34,86.44Zm1.32-3.87a5.86,5.86,0,0,1,0-.72c0-.11.07-.18.2-.21a12.16,12.16,0,0,1,2.81-.36,21.85,21.85,0,0,1,2.53.15.23.23,0,0,1,.21.21s0,.09,0,.15a3.94,3.94,0,0,1,0,.4c0,.12-.06.18-.13.18h-.06a16.75,16.75,0,0,0-2.58-.18A11.84,11.84,0,0,0,97.66,82.57Z"/><path d="M111.4,75.71a4.6,4.6,0,0,1,1,.38c.15.08.22.16.22.24a.25.25,0,0,1-.07.19,1.46,1.46,0,0,0-.3.7,23,23,0,0,0-.57,4.38,14.54,14.54,0,0,0,.1,2.12c.12-.26.59-1.16,1.4-2.72a1.52,1.52,0,0,0,.27.54.32.32,0,0,1,.07.19.4.4,0,0,1-.07.21,16.81,16.81,0,0,0-1.15,2.41,1.64,1.64,0,0,0-.14.57V85a.15.15,0,0,1-.1.15,2.92,2.92,0,0,1-.65.11c-.06,0-.12-.07-.16-.19a9.37,9.37,0,0,1-.43-3.23,27.19,27.19,0,0,1,.42-4.16,11.29,11.29,0,0,0,.18-1.61C111.42,76,111.41,75.84,111.4,75.71Zm5.64.11a6,6,0,0,1,1.09.15c.16,0,.24.11.24.22a.25.25,0,0,1,0,.08,2.4,2.4,0,0,0-.08.67c0,.07,0,.13,0,.2.13,1.92.2,3.52.2,4.8A9.37,9.37,0,0,1,117,87.75a8.65,8.65,0,0,1-2.87,2.46.32.32,0,0,1-.18.07.29.29,0,0,1-.18-.08,1.74,1.74,0,0,0-.74-.35,13.16,13.16,0,0,0,1.89-1.2,6.8,6.8,0,0,0,1.19-1.26A8.93,8.93,0,0,0,117.55,82q0-1.44-.18-4.29A9.93,9.93,0,0,0,117,75.82Z"/><path d="M130.75,78.75a19.94,19.94,0,0,0,2.63-.52h.12q.1,0,.12.12a3.28,3.28,0,0,1,.07.56.2.2,0,0,1-.16.21,28.7,28.7,0,0,1-3,.52,36.9,36.9,0,0,1-3.63,7.6.15.15,0,0,1-.13.08.19.19,0,0,1-.12,0,3.46,3.46,0,0,1-.54-.41.19.19,0,0,1-.07-.13.31.31,0,0,1,.07-.15,31.39,31.39,0,0,0,3.45-6.85,22.86,22.86,0,0,1-2.43.14,8.89,8.89,0,0,1-.95,0,.18.18,0,0,1-.2-.18q-.06-.34-.09-.69c.51,0,1,.05,1.34.05a22.08,22.08,0,0,0,2.61-.17c.15-.53.33-1.23.53-2.1a5,5,0,0,0,.13-1.13,1.77,1.77,0,0,0,0-.24,4.66,4.66,0,0,1,1.2.34.18.18,0,0,1,.12.16.39.39,0,0,1-.14.26,1.29,1.29,0,0,0-.27.5C131.09,77.65,130.88,78.36,130.75,78.75Zm4.13,7.47c-.13-1.36-.2-2.55-.22-3.58a5.83,5.83,0,0,0-.13-1.22,5.09,5.09,0,0,1,1.05.18c.11,0,.16.1.16.19a1.19,1.19,0,0,1-.09.31,2.64,2.64,0,0,0-.11.88c0,.79.09,1.94.25,3.46a16.11,16.11,0,0,1,3.38,1.74c.08.06.11.1.11.14a.47.47,0,0,1-.05.14A5,5,0,0,1,139,89a.13.13,0,0,1-.13.08.29.29,0,0,1-.15-.06,10.09,10.09,0,0,0-2.85-1.69A2.65,2.65,0,0,1,135,89.5a3.69,3.69,0,0,1-2.39.64,3.17,3.17,0,0,1-1.87-.53,1.73,1.73,0,0,1-.77-1.46,1.91,1.91,0,0,1,1-1.7,3.8,3.8,0,0,1,2-.5A6.64,6.64,0,0,1,134.88,86.22Zm0,.85a5.2,5.2,0,0,0-1.83-.33,2.88,2.88,0,0,0-1.77.45,1.13,1.13,0,0,0-.45.92q0,1.23,1.95,1.23c1.41,0,2.12-.6,2.12-1.79A2.46,2.46,0,0,0,134.89,87.07Zm.78-7.61a4.64,4.64,0,0,1,.36-.62c.06-.09.11-.13.16-.13l.11,0a12.51,12.51,0,0,1,3.53,1.68.21.21,0,0,1,.07.13.46.46,0,0,1-.06.16,1.87,1.87,0,0,1-.3.5c0,.06-.08.08-.12.08a.17.17,0,0,1-.11-.06A10.94,10.94,0,0,0,135.67,79.46Z"/><path d="M143.08,86.55a13.9,13.9,0,0,0,4.19-5.6,5.42,5.42,0,0,0,.48-1.94,4.92,4.92,0,0,1,1.22.53.29.29,0,0,1,.14.22A.33.33,0,0,1,149,80a2.61,2.61,0,0,0-.54.87,18.38,18.38,0,0,1-4.11,6,.31.31,0,0,1-.24.12.33.33,0,0,1-.19-.06A2,2,0,0,0,143.08,86.55Zm9.23-7a5.54,5.54,0,0,1,.65-.42.37.37,0,0,1,.15-.06s.09,0,.15.1a23.79,23.79,0,0,1,4.47,6.41.54.54,0,0,1,.05.16.19.19,0,0,1-.1.16,5,5,0,0,1-.65.41.28.28,0,0,1-.12,0s-.09,0-.12-.13A22.33,22.33,0,0,0,152.31,79.6Z"/><path d="M162,82.27a32.59,32.59,0,0,0,3.71.16h5.72q2.51,0,3.87-.06c.17,0,.25.07.25.21v.67c0,.15-.08.22-.25.22-.63,0-1.42,0-2.38,0h-8.47l-2.06.16a.25.25,0,0,1-.25-.22A4.12,4.12,0,0,1,162,82.27Z"/><path d="M180.54,77.89c1,.07,2.13.11,3.45.11h6.35a2,2,0,0,0,.83-.14.42.42,0,0,1,.21-.06.49.49,0,0,1,.25.07,4.7,4.7,0,0,1,.64.61.32.32,0,0,1,.08.21.3.3,0,0,1-.12.24,1.56,1.56,0,0,0-.39.6,19,19,0,0,1-3.54,5.92,20,20,0,0,1-5.37,4.32.55.55,0,0,1-.23.07.36.36,0,0,1-.26-.11,2.53,2.53,0,0,0-.7-.5A18.81,18.81,0,0,0,185.26,87a19.69,19.69,0,0,0,2.2-2.14,17.51,17.51,0,0,0,3.52-6h-7c-1.18,0-2.19,0-3.06.09h-.07c-.14,0-.22-.09-.25-.27C180.55,78.27,180.54,78,180.54,77.89Zm10.85-2,.54-.38.08,0,.07,0a8.17,8.17,0,0,1,2,2.18.16.16,0,0,1,0,.08.21.21,0,0,1,0,.09l-.43.36-.08,0a.15.15,0,0,1-.12-.07A8.13,8.13,0,0,0,191.39,75.87Zm1.51-1.19.47-.37.09,0a.13.13,0,0,1,.08,0,8,8,0,0,1,2,2.15.23.23,0,0,1,0,.09s0,.07-.07.1l-.41.36a.12.12,0,0,1-.08,0s-.07,0-.11-.07A8,8,0,0,0,192.9,74.68Z"/><path d="M205.54,81.71a11.39,11.39,0,0,1-1.06,4.84,8.63,8.63,0,0,1-3.18,3.33A.59.59,0,0,1,201,90a.22.22,0,0,1-.14-.06,2.46,2.46,0,0,0-.84-.46,9,9,0,0,0,2.26-1.55,7.19,7.19,0,0,0,1.25-1.73,10.13,10.13,0,0,0,.94-4.48h-3.75c-.8,0-1.66,0-2.57.08-.11,0-.18,0-.21-.05s0-.08-.06-.18,0-.31-.07-.8c.94,0,1.91.07,2.91.07h7.69c1.11,0,2.17,0,3.18-.07.13,0,.2.08.2.25v.57c0,.12-.07.18-.22.18-1.09,0-2.14-.05-3.15-.05ZM200,76.78c.88,0,1.79.07,2.72.07h3.6q1.9,0,2.88-.06h.06c.09,0,.14.08.14.22v.52c0,.16-.08.24-.22.24-.65,0-1.6,0-2.86,0h-3.6c-1.08,0-1.89,0-2.44.06h-.07q-.14,0-.15-.21Z"/><path d="M223.81,82.37v5.26c0,.55,0,1.34,0,2.36,0,.11,0,.17-.15.17l-.33,0-.35,0a.15.15,0,0,1-.16-.17c0-.77.06-1.55.06-2.32V83.15a24.23,24.23,0,0,1-4.62,3.3.15.15,0,0,1-.11,0,.17.17,0,0,1-.13,0,1.73,1.73,0,0,0-.65-.45,21.92,21.92,0,0,0,6.89-5.49,7.28,7.28,0,0,0,1.1-1.71,4,4,0,0,1,.95.61.29.29,0,0,1,.11.19c0,.07-.05.14-.16.19a2.2,2.2,0,0,0-.77.69A22.13,22.13,0,0,1,223.81,82.37Z"/><path d="M234,82.27a32.59,32.59,0,0,0,3.71.16h5.72q2.51,0,3.87-.06c.17,0,.25.07.25.21v.67c0,.15-.08.22-.25.22-.63,0-1.42,0-2.38,0h-8.47l-2.06.16a.25.25,0,0,1-.25-.22A4.12,4.12,0,0,1,234,82.27Z"/><path d="M257.72,75.21a4.5,4.5,0,0,1,1.14.36.18.18,0,0,1,.12.17.22.22,0,0,1-.09.17,1.1,1.1,0,0,0-.36.52c-.18.44-.39.93-.65,1.48a23,23,0,0,0,4-.63l.12,0s.07,0,.09.08a2.88,2.88,0,0,1,.07.63c0,.11-.07.17-.21.2a33.48,33.48,0,0,1-4.41.61,18.66,18.66,0,0,1-1.92,2.88l0,0a3.79,3.79,0,0,1,2.32-.81c1.38,0,2.14.74,2.28,2.23.35-.15,1.31-.59,2.85-1.32a4.73,4.73,0,0,0,1.41-.93,2.85,2.85,0,0,1,.74.83.35.35,0,0,1,0,.13c0,.1-.06.16-.18.19a7.18,7.18,0,0,0-1.05.35c-.79.31-2,.85-3.77,1.6,0,1.36,0,2.36,0,3,0,.11,0,.17-.14.18a6.51,6.51,0,0,1-.65.06c-.08,0-.12-.06-.12-.19,0-.79,0-1.41,0-1.83,0-.27,0-.55,0-.85a9.51,9.51,0,0,0-2.49,1.57,2.16,2.16,0,0,0-.77,1.57,1.3,1.3,0,0,0,.83,1.25,6.27,6.27,0,0,0,2.46.37,31.08,31.08,0,0,0,4.23-.35.17.17,0,0,1,.17.11,3.3,3.3,0,0,1,.08.67q0,.19-.12.21a39.87,39.87,0,0,1-4.43.24q-4.06,0-4.07-2.46a2.9,2.9,0,0,1,1.05-2.16,13,13,0,0,1,3-1.88,2.38,2.38,0,0,0-.41-1.52,1.45,1.45,0,0,0-1.12-.39,5.08,5.08,0,0,0-3.18,1.5c-.36.33-.91.88-1.66,1.65,0,.06-.09.09-.13.09a.18.18,0,0,1-.11,0,3.89,3.89,0,0,1-.48-.52.23.23,0,0,1,0-.1s0-.06.07-.11a19.56,19.56,0,0,0,4.29-5.2c-.64,0-1.27.06-1.9.06l-1.6,0a.17.17,0,0,1-.18-.15q0-.31-.09-.72c.65,0,1.29.07,1.92.07s1.47,0,2.22-.09a13,13,0,0,0,.7-1.84,2.79,2.79,0,0,0,.11-.76Z"/><path d="M113.58,130.35q-.54,4.78-5.58,5.41l-.17,0c-.09,0-.18-.08-.26-.23a1.17,1.17,0,0,0-.47-.51c3.47-.24,5.33-1.81,5.58-4.69h-.27l-2.45,0a.11.11,0,0,1-.12-.12l0-2.23v-5l0-2.23c0-.09,0-.13.12-.13l2.47,0h4.74l2.47,0c.08,0,.12,0,.12.13l0,2.23v5l0,2.23a.11.11,0,0,1-.12.12l-2.47,0h-.47v3.43a.66.66,0,0,0,.54.74,10.64,10.64,0,0,0,1.8.09,4,4,0,0,0,2-.31,1.27,1.27,0,0,0,.45-.75,7.4,7.4,0,0,0,.12-1.23,1.42,1.42,0,0,0,.54.36c.17.09.25.17.25.26s0,.08,0,.16a4.23,4.23,0,0,1-.28,1.26,1.34,1.34,0,0,1-.49.57,4.81,4.81,0,0,1-2.63.47,11.9,11.9,0,0,1-2.34-.16,1,1,0,0,1-.8-1.08v-3.81Zm-2.9-6.74h8.24v-2.18h-8.24Zm0,.71v2.18h8.24v-2.18Zm0,2.89v2.4h8.24v-2.4Z"/><path d="M125.38,125.57a17.6,17.6,0,0,0,3.49-1,19.17,19.17,0,0,1,6-1.33,4.74,4.74,0,0,1,3.6,1.34,4.14,4.14,0,0,1,1.09,3,5,5,0,0,1-2.9,4.57,13.85,13.85,0,0,1-4.78,1.51h-.09a.31.31,0,0,1-.27-.16,2.33,2.33,0,0,0-.62-.64,14.89,14.89,0,0,0,5-1.42,4.17,4.17,0,0,0,2.57-3.88,3.13,3.13,0,0,0-1.16-2.66,4,4,0,0,0-2.58-.76,11.16,11.16,0,0,0-3.15.52q-1.38.42-3.75,1.38a4.42,4.42,0,0,0-1.2.64.5.5,0,0,1-.31.14.36.36,0,0,1-.26-.16A4,4,0,0,1,125.38,125.57Z"/><path d="M145.58,120.91a5.15,5.15,0,0,1,1.07.42c.12.08.19.16.19.24a1.09,1.09,0,0,1-.11.28,3.87,3.87,0,0,0-.29,1,36.31,36.31,0,0,0-.66,6.14,14.14,14.14,0,0,0,.47,3.74c.38-.92.82-2,1.33-3.13a2.87,2.87,0,0,0,.36.66.38.38,0,0,1,.07.17,1.27,1.27,0,0,1-.13.34c-.42.94-.78,1.85-1.08,2.72-.05.24-.08.38-.08.41l0,.33a.11.11,0,0,1-.07.12,2.91,2.91,0,0,1-.53.16h-.06a.2.2,0,0,1-.17-.13,10.64,10.64,0,0,1-.76-2.54,13.88,13.88,0,0,1-.26-2.61,33.7,33.7,0,0,1,.46-5.38,18.52,18.52,0,0,0,.23-2.38C145.59,121.29,145.59,121.12,145.58,120.91Zm8.49,3.7c0-1.55-.06-2.5-.09-2.83a3.52,3.52,0,0,0-.22-1.16,4.23,4.23,0,0,1,1.24.15.18.18,0,0,1,.15.18.41.41,0,0,1-.05.21,1.89,1.89,0,0,0-.14.72c0,.35,0,1.23,0,2.65a15.25,15.25,0,0,0,2.66-.49h.09a.1.1,0,0,1,.11.1,3.1,3.1,0,0,1,.07.63c0,.12,0,.19-.12.2-.9.18-1.83.32-2.8.43l0,2.57a15.73,15.73,0,0,1-.15,2.6,7.23,7.23,0,0,1-.57,1.85,6.36,6.36,0,0,1-2.53,2.74.53.53,0,0,1-.22.11.36.36,0,0,1-.21-.11,1.66,1.66,0,0,0-.62-.35,6.92,6.92,0,0,0,1.88-1.4,5.14,5.14,0,0,0,1-1.66,10.18,10.18,0,0,0,.52-3.64v-.51l0-2.11q-1.28.12-2.61.12h-.72c-.29,0-.54,0-.76,0s-.24-.07-.25-.19a4.37,4.37,0,0,1-.06-.72c.58,0,1.24.08,2,.08S153.14,124.7,154.07,124.61Z"/><path d="M168.91,124.9a15.83,15.83,0,0,0,4.5-.89h0a.14.14,0,0,1,.11.06,4.31,4.31,0,0,1,.23.72v0s0,.08-.09.09a21.64,21.64,0,0,1-4.77.88,47.93,47.93,0,0,0,.34,5.13,18.93,18.93,0,0,1,5.13,2.34.18.18,0,0,1,.06.13.06.06,0,0,1,0,0,2.61,2.61,0,0,1-.39.67.21.21,0,0,1-.09,0l-.05,0a18.86,18.86,0,0,0-4.6-2.3v.57a2.29,2.29,0,0,1-1,1.91,3.48,3.48,0,0,1-2.15.65,4.35,4.35,0,0,1-2.64-.66,1.73,1.73,0,0,1-.71-1.45A2,2,0,0,1,164,131.1a4.62,4.62,0,0,1,2.27-.53,11.79,11.79,0,0,1,2,.17q-.27-2.43-.33-5.85c0-.57,0-1.52,0-2.87a5,5,0,0,0-.17-1.4,4.64,4.64,0,0,1,1.22.2c.11,0,.17.1.17.17a.34.34,0,0,1,0,.15,2.54,2.54,0,0,0-.22.92C168.92,122.46,168.91,123.4,168.91,124.9Zm-.54,6.74a8.48,8.48,0,0,0-2.14-.26,3.61,3.61,0,0,0-1.95.45,1.14,1.14,0,0,0-.61,1c0,.87.81,1.3,2.43,1.3a2.43,2.43,0,0,0,1.72-.56,1.94,1.94,0,0,0,.57-1.49A3.94,3.94,0,0,0,168.37,131.64Z"/><path d="M181.84,126a7.92,7.92,0,0,0,2-.41c1.09-.35,1.85-.57,2.27-.66a7.38,7.38,0,0,1,1.57-.19,2.84,2.84,0,0,1,2.27,1,4.43,4.43,0,0,1,.88,2.91,6.06,6.06,0,0,1-1.5,4.09,9.63,9.63,0,0,1-3.16,2.47.59.59,0,0,1-.25.08.28.28,0,0,1-.19-.1,1.58,1.58,0,0,0-.68-.47,9.31,9.31,0,0,0,3.76-2.88,5.26,5.26,0,0,0,1-3.22c0-2-.8-3-2.4-3a10,10,0,0,0-2.56.57,17.38,17.38,0,0,0-1.67.72l-.34.2a.51.51,0,0,1-.24.09q-.16,0-.33-.24A7.13,7.13,0,0,1,181.84,126Zm3.06-5.6a17.51,17.51,0,0,0,4.8,1.31c.11,0,.17.08.17.18v0a3.36,3.36,0,0,1-.17.57c0,.11-.08.17-.16.17h0a23,23,0,0,1-4.66-1.27q-.15-.06-.15-.18v-.08A4.45,4.45,0,0,1,184.9,120.35Z"/><path d="M203.92,127.79l-5.16-4.74a.86.86,0,0,1-.33-.63.77.77,0,0,1,.19-.49.79.79,0,0,1,.61-.29.78.78,0,0,1,.53.22l5.46,5a1.3,1.3,0,0,1,.5.9,1.29,1.29,0,0,1-.5.87l-5.46,5a.76.76,0,0,1-.54.22.73.73,0,0,1-.59-.3.72.72,0,0,1-.19-.49.81.81,0,0,1,.32-.62Zm5.45,0-5.15-4.74a.83.83,0,0,1-.31-.63.72.72,0,0,1,.19-.49.77.77,0,0,1,.59-.29.78.78,0,0,1,.53.22l5.47,5a1.26,1.26,0,0,1,.5.9,1.25,1.25,0,0,1-.5.87l-5.47,5a.8.8,0,0,1-.54.22.83.83,0,0,1-.77-.79.85.85,0,0,1,.31-.62Z"/></g></svg>