<svg xmlns="http://www.w3.org/2000/svg" viewBox="0 0 466 174.81"><defs><style>.cls-1,.cls-3{opacity:0.8;}.cls-2{fill:#fff;stroke-width:5px;}.cls-2,.cls-3{stroke:#fff;stroke-miterlimit:10;}.cls-3{fill:none;stroke-width:15px;}</style></defs><title>cup</title><g id="レイヤー_1" data-name="レイヤー 1"><g class="cls-1"><path class="cls-2" d="M194,2.83H387.05s-7.09,169-131.06,169H194"/><path class="cls-2" d="M194,2.83H3.55s7,169,129.29,169H194"/></g><path class="cls-3" d="M373.05,57.83c45-44.67,134-29,51,53-48,41-87,8-69,50"/></g><g id="レイヤー_2" data-name="レイヤー 2"><path d="M109.58,35.41c.06-.54.11-1.12.14-1.74,0-.25,0-.47,0-.68a9.49,9.49,0,0,0-.11-1.45,4.45,4.45,0,0,1,1.22.24c.13,0,.19.11.19.21a.54.54,0,0,1-.09.27,3.15,3.15,0,0,0-.24,1.26c0,.75-.09,1.38-.16,1.89h3.17l2.18,0a.45.45,0,0,1,.21,0s0,.08,0,.17c0,.27,0,.79,0,1.55a26.22,26.22,0,0,1-.69,5.63,4.18,4.18,0,0,1-.6,1.46,1.83,1.83,0,0,1-.87.59,5.77,5.77,0,0,1-1.89.23.22.22,0,0,1-.24-.15,1.71,1.71,0,0,0-.47-.8l.69,0a4.58,4.58,0,0,0,1.51-.2,1.11,1.11,0,0,0,.6-.49,4.56,4.56,0,0,0,.35-1.06,28.25,28.25,0,0,0,.63-6.09h-4.66a14.13,14.13,0,0,1-1.64,5.08,9.5,9.5,0,0,1-1.7,2.1,12,12,0,0,1-2.1,1.61.25.25,0,0,1-.16,0,.21.21,0,0,1-.16-.07,1.57,1.57,0,0,0-.81-.44A9.81,9.81,0,0,0,108,41a12.45,12.45,0,0,0,1.51-4.7h-2.23c-.87,0-1.69,0-2.47.07-.1,0-.17-.07-.2-.21a5.4,5.4,0,0,1,0-.79c.84,0,1.74.07,2.7.07Z"/><path d="M122.73,33.6c1,.07,2.13.11,3.45.11h6.35a1.84,1.84,0,0,0,.83-.15.5.5,0,0,1,.21-.05.49.49,0,0,1,.25.07,4.7,4.7,0,0,1,.64.61.32.32,0,0,1,.08.21.31.31,0,0,1-.12.24,1.52,1.52,0,0,0-.39.59,19,19,0,0,1-3.54,5.93,19.65,19.65,0,0,1-5.37,4.32.43.43,0,0,1-.23.07.35.35,0,0,1-.26-.1,2.34,2.34,0,0,0-.7-.51,18.31,18.31,0,0,0,3.52-2.22,19.69,19.69,0,0,0,2.2-2.14,17.39,17.39,0,0,0,3.52-6h-7c-1.18,0-2.2,0-3.06.1H123c-.14,0-.22-.09-.25-.27C122.74,34,122.73,33.71,122.73,33.6Z"/><path d="M146.85,38.22v5.33h2.47c.52,0,1.36,0,2.51,0,.1,0,.15.06.17.18v.47c0,.14-.07.22-.17.22-1.17,0-2,0-2.49,0h-5.92c-.47,0-1.2,0-2.2.07q-.15,0-.18-.18c0-.25,0-.5,0-.73.57,0,1.37,0,2.41,0h2.52V38.24h-1.36l-2.06,0a.21.21,0,0,1-.24-.18q0-.39,0-.72c.73,0,1.51.07,2.32.07h3.49c.34,0,.77,0,1.28,0l1.14,0a.17.17,0,0,1,.19.18v.52q0,.18-.21.18c-1.16,0-2,0-2.4,0Z"/><path d="M164.5,37.07a1.41,1.41,0,0,1,.94,2.46,1.33,1.33,0,0,1-.94.37,1.43,1.43,0,0,1-1.42-1.42,1.33,1.33,0,0,1,.47-1A1.39,1.39,0,0,1,164.5,37.07Z"/><path d="M183.26,37.41a11.39,11.39,0,0,1-1.07,4.85A8.61,8.61,0,0,1,179,45.59a.59.59,0,0,1-.29.1.19.19,0,0,1-.14,0,2.31,2.31,0,0,0-.84-.46A9.19,9.19,0,0,0,180,43.63a6.93,6.93,0,0,0,1.25-1.73,9.87,9.87,0,0,0,.94-4.49h-3.74q-1.2,0-2.58.09a.32.32,0,0,1-.21,0,.51.51,0,0,1-.06-.18c0-.05,0-.31-.07-.8.94,0,1.92.07,2.92.07h7.68c1.11,0,2.17,0,3.18-.07.14,0,.2.08.2.25v.57c0,.12-.07.18-.22.18-1.09,0-2.13-.06-3.14-.06Zm-5.53-4.92c.88,0,1.78.07,2.71.07h3.61q1.9,0,2.88-.06h0c.1,0,.14.07.14.22v.52c0,.16-.07.24-.22.24-.64,0-1.59,0-2.85,0h-3.61c-1.07,0-1.89,0-2.44.05h-.06c-.1,0-.15-.06-.16-.2Z"/><path d="M201.53,38.08v5.26c0,.55,0,1.33,0,2.35q0,.18-.15.18l-.32,0-.35,0c-.11,0-.16-.06-.16-.18,0-.76,0-1.54,0-2.32V38.86a24.92,24.92,0,0,1-4.61,3.3.28.28,0,0,1-.12,0,.15.15,0,0,1-.13-.06,1.8,1.8,0,0,0-.65-.45A21.54,21.54,0,0,0,202,36.21a7,7,0,0,0,1.1-1.71,4.33,4.33,0,0,1,1,.61.27.27,0,0,1,.1.19.23.23,0,0,1-.15.19,2.14,2.14,0,0,0-.78.69C202.6,37,202,37.59,201.53,38.08Z"/><path d="M221.91,35.72h.66c1.28,0,2.26,0,3,0,.15,0,.22.06.22.2v.55c0,.14,0,.2-.14.2h-.08c-.68,0-1.66,0-2.93,0h-.68a11.76,11.76,0,0,1-1.27,5.76,8,8,0,0,1-4.43,3.47.41.41,0,0,1-.16,0,.31.31,0,0,1-.2-.11,2.16,2.16,0,0,0-.71-.5,7.5,7.5,0,0,0,4.73-3.37,11.55,11.55,0,0,0,1.1-5.29h-4.84v1c0,.4,0,.92,0,1.55,0,.79,0,1.23,0,1.34s-.05.15-.16.15a1.72,1.72,0,0,1-.34,0,1.94,1.94,0,0,1-.36,0c-.11,0-.16-.05-.16-.17,0-1.87.05-2.82.05-2.84v-1h-1.08c-.94,0-1.84,0-2.68.06h0c-.08,0-.13-.07-.15-.22s0-.36-.05-.77c.89,0,1.87.07,2.93.07h1.08V34.17A11.4,11.4,0,0,0,215,31.7a5.36,5.36,0,0,1,1.22.2c.11,0,.16.1.16.19a.63.63,0,0,1-.08.26,5.5,5.5,0,0,0-.16,1.82v1.55H221V34.17a15.07,15.07,0,0,0-.18-2.76,6.29,6.29,0,0,1,1.13.2c.14,0,.21.12.21.23a.41.41,0,0,1-.06.2,7.15,7.15,0,0,0-.16,2.06Z"/><path d="M230.71,33.93a7.55,7.55,0,0,1,.55-.64.24.24,0,0,1,.16-.08.36.36,0,0,1,.13,0,18.09,18.09,0,0,1,3.16,2.34.26.26,0,0,1,.09.16.24.24,0,0,1,0,.13,4.62,4.62,0,0,1-.48.58c-.06.06-.1.08-.14.08a.18.18,0,0,1-.1-.06A19,19,0,0,0,230.71,33.93Zm.43,9.6a7.15,7.15,0,0,0,1.73-.67,32,32,0,0,0,5.2-3.32,28.49,28.49,0,0,0,4.8-4.77,2.54,2.54,0,0,0,.27.88.38.38,0,0,1,.06.19.61.61,0,0,1-.16.35,31.36,31.36,0,0,1-4.43,4.2,40.78,40.78,0,0,1-5.38,3.48,4,4,0,0,0-.92.69.31.31,0,0,1-.2.11.37.37,0,0,1-.2-.11A6.1,6.1,0,0,1,231.14,43.53Z"/><path d="M256.06,39.34a30.1,30.1,0,0,1,3.92,3.4.34.34,0,0,1,.08.18.25.25,0,0,1-.07.15,5.26,5.26,0,0,1-.41.46c-.08.07-.13.1-.18.1s-.09,0-.15-.1a20.37,20.37,0,0,0-3.82-3.43,25.68,25.68,0,0,1-6.92,5.16.37.37,0,0,1-.15.05.25.25,0,0,1-.2-.13,1.87,1.87,0,0,0-.74-.53,23.13,23.13,0,0,0,7.2-5.13,28.25,28.25,0,0,0-3.93-2.4c.19-.25.34-.44.44-.55s.13-.12.18-.12a.37.37,0,0,1,.15,0,33.62,33.62,0,0,1,3.8,2.29,20.74,20.74,0,0,0,3.36-5.07h-6.08c-.9,0-1.8,0-2.71.1h-.05c-.11,0-.16-.07-.18-.22s0-.48-.07-.84c1,.07,2,.1,3,.1h5.53a2.49,2.49,0,0,0,.86-.1.3.3,0,0,1,.16,0,.49.49,0,0,1,.23.08,3.34,3.34,0,0,1,.62.56.37.37,0,0,1,.09.22.25.25,0,0,1-.12.21,1.37,1.37,0,0,0-.45.51A23.13,23.13,0,0,1,256.06,39.34Z"/><path d="M267.15,32a4,4,0,0,1,1.11.39c.12.08.17.15.17.23a.29.29,0,0,1-.06.17,2.62,2.62,0,0,0-.36.86,39.56,39.56,0,0,0-.86,6.68,21.17,21.17,0,0,0,.2,3.4c.19-.48.62-1.5,1.29-3.07a2.32,2.32,0,0,0,.34.61.21.21,0,0,1,.07.15.35.35,0,0,1-.05.18,17.05,17.05,0,0,0-1.11,2.89,3.89,3.89,0,0,0-.05.48,1,1,0,0,0,0,.26.89.89,0,0,1,0,.11.13.13,0,0,1-.07.12,2.26,2.26,0,0,1-.65.22h-.05c-.05,0-.1,0-.13-.13a14.63,14.63,0,0,1-.7-5.17,45.37,45.37,0,0,1,.79-6.73,7.6,7.6,0,0,0,.1-1.18A3.18,3.18,0,0,0,267.15,32Zm8.34,9.74c-.1-1.64-.15-3.41-.15-5.33-.84.06-1.64.09-2.37.09s-1.17,0-1.75,0c-.09,0-.13,0-.14-.13,0-.39-.06-.66-.06-.78q1,.09,2.07.09c.71,0,1.45,0,2.23-.09l0-2.13a6.36,6.36,0,0,0-.16-1.53,5.32,5.32,0,0,1,1.15.22.21.21,0,0,1,.14.19.52.52,0,0,1-.05.21,2.48,2.48,0,0,0-.16.94c0,.89,0,1.56,0,2a21.57,21.57,0,0,0,2.95-.48c.08,0,.12,0,.13.09a2.39,2.39,0,0,1,.06.61q0,.15-.09.18a20.33,20.33,0,0,1-3,.45c0,2.26.08,4.15.18,5.69a11.77,11.77,0,0,1,3.15,1.85s.06.06.06.08a.33.33,0,0,1,0,.1,2.25,2.25,0,0,1-.37.6l-.08.05-.08,0a10.7,10.7,0,0,0-2.65-1.74c0,1.66-1,2.49-2.93,2.49a3.26,3.26,0,0,1-2-.54,1.65,1.65,0,0,1-.65-1.37,1.77,1.77,0,0,1,.94-1.59,3.16,3.16,0,0,1,1.71-.44A8.18,8.18,0,0,1,275.49,41.75Zm0,.86a6,6,0,0,0-2.09-.38,2.14,2.14,0,0,0-1.38.39,1.08,1.08,0,0,0-.44.91.92.92,0,0,0,.58.86,2.67,2.67,0,0,0,1.25.26c1.39,0,2.08-.57,2.08-1.7Z"/><path d="M283.06,42.62a.42.42,0,0,1,.22.09A14.13,14.13,0,0,1,286.69,46a.34.34,0,0,1,.08.19.28.28,0,0,1-.13.2l-.5.41a.37.37,0,0,1-.16.09.22.22,0,0,1-.2-.14,12.33,12.33,0,0,0-3.28-3.35.17.17,0,0,1-.1-.15.19.19,0,0,1,.07-.12l.41-.38A.55.55,0,0,1,283.06,42.62Z"/><path d="M50.51,77.3a5.52,5.52,0,0,1,1.27.65.31.31,0,0,1,.14.24.21.21,0,0,1-.07.16,3.2,3.2,0,0,0-.74,1.11,29.71,29.71,0,0,1-3.17,5.46A22,22,0,0,1,42.51,90a.37.37,0,0,1-.16,0,.27.27,0,0,1-.18-.07,2.33,2.33,0,0,0-.87-.45,20.85,20.85,0,0,0,5.8-5.22A24.88,24.88,0,0,0,50,79.17,6.79,6.79,0,0,0,50.51,77.3Z"/><path d="M59.71,78.93a7.55,7.55,0,0,1,.55-.64.24.24,0,0,1,.16-.08.36.36,0,0,1,.13.05,18.09,18.09,0,0,1,3.16,2.34.26.26,0,0,1,.09.16.24.24,0,0,1,0,.13,4.62,4.62,0,0,1-.48.58c-.06.06-.1.08-.14.08a.18.18,0,0,1-.1-.06A19,19,0,0,0,59.71,78.93Zm.43,9.6a7.15,7.15,0,0,0,1.73-.67,32,32,0,0,0,5.2-3.32,28.49,28.49,0,0,0,4.8-4.77,2.54,2.54,0,0,0,.27.88.38.38,0,0,1,.06.19.61.61,0,0,1-.16.35,31.36,31.36,0,0,1-4.43,4.2,40.78,40.78,0,0,1-5.38,3.48,4,4,0,0,0-.92.69.31.31,0,0,1-.2.11.37.37,0,0,1-.2-.11A6.1,6.1,0,0,1,60.14,88.53Z"/><path d="M82.58,80.41c.06-.54.11-1.12.14-1.74,0-.25,0-.47,0-.68a9.49,9.49,0,0,0-.11-1.45,4.45,4.45,0,0,1,1.22.24c.13,0,.19.11.19.21a.54.54,0,0,1-.09.27,3.15,3.15,0,0,0-.24,1.26c0,.75-.09,1.38-.16,1.89h3.17l2.18,0a.45.45,0,0,1,.21,0s0,.08,0,.17c0,.27,0,.79,0,1.55a26.22,26.22,0,0,1-.69,5.63,4.18,4.18,0,0,1-.6,1.46,1.83,1.83,0,0,1-.87.59,5.77,5.77,0,0,1-1.89.23.22.22,0,0,1-.24-.15,1.71,1.71,0,0,0-.47-.8l.69,0a4.58,4.58,0,0,0,1.51-.2,1.11,1.11,0,0,0,.6-.49,4.56,4.56,0,0,0,.35-1.06,28.25,28.25,0,0,0,.63-6.09H83.46a14.13,14.13,0,0,1-1.64,5.08,9.5,9.5,0,0,1-1.7,2.1A12,12,0,0,1,78,90.06a.25.25,0,0,1-.16,0A.21.21,0,0,1,77.7,90a1.57,1.57,0,0,0-.81-.44A9.81,9.81,0,0,0,81,86a12.45,12.45,0,0,0,1.51-4.7H80.26c-.87,0-1.69,0-2.47.07-.1,0-.17-.07-.2-.21a5.4,5.4,0,0,1,0-.79c.84,0,1.74.07,2.7.07Z"/><path d="M95.73,78.6c1,.07,2.13.11,3.45.11h6.35a1.84,1.84,0,0,0,.83-.15.5.5,0,0,1,.21,0,.49.49,0,0,1,.25.07,4.7,4.7,0,0,1,.64.61.32.32,0,0,1,.08.21.31.31,0,0,1-.12.24,1.52,1.52,0,0,0-.39.59,19,19,0,0,1-3.54,5.93,19.65,19.65,0,0,1-5.37,4.32.43.43,0,0,1-.23.07.35.35,0,0,1-.26-.1,2.34,2.34,0,0,0-.7-.51,18.31,18.31,0,0,0,3.52-2.22,19.69,19.69,0,0,0,2.2-2.14,17.39,17.39,0,0,0,3.52-6h-7c-1.18,0-2.2,0-3.06.1H96c-.14,0-.22-.09-.25-.27C95.74,79,95.73,78.71,95.73,78.6Z"/><path d="M119.85,83.22v5.33h2.47c.52,0,1.36,0,2.51,0,.1,0,.15.06.17.18v.47c0,.14-.07.22-.17.22-1.17,0-2,0-2.49,0h-5.92c-.47,0-1.2,0-2.2.07q-.15,0-.18-.18c0-.25,0-.5,0-.73.57,0,1.37,0,2.41,0h2.52V83.24h-1.36l-2.06,0a.21.21,0,0,1-.24-.18q0-.39,0-.72c.73,0,1.51.07,2.32.07h3.49c.34,0,.77,0,1.28,0l1.14,0a.17.17,0,0,1,.19.18v.52q0,.18-.21.18c-1.16,0-2,0-2.4,0Z"/><path d="M138.94,80.8v6.58c0,1,0,2,.05,3.08q0,.18-.15.18H138c-.1,0-.14-.06-.14-.18,0-1,0-2,0-3V81.68A34.22,34.22,0,0,1,132,85.94a.22.22,0,0,1-.13,0,.28.28,0,0,1-.19-.09,1.76,1.76,0,0,0-.68-.47,34.1,34.1,0,0,0,5.6-3.81A29.47,29.47,0,0,0,140.22,78a5.41,5.41,0,0,0,1-1.76,3.43,3.43,0,0,1,1,.68.29.29,0,0,1,.1.21.22.22,0,0,1-.15.22,5.14,5.14,0,0,0-1,.94A32.53,32.53,0,0,1,138.94,80.8Z"/><path d="M149.71,78.93a7.55,7.55,0,0,1,.55-.64.24.24,0,0,1,.16-.08.36.36,0,0,1,.13.05,18.09,18.09,0,0,1,3.16,2.34.26.26,0,0,1,.09.16.24.24,0,0,1,0,.13,4.62,4.62,0,0,1-.48.58c-.06.06-.1.08-.14.08a.18.18,0,0,1-.1-.06A19,19,0,0,0,149.71,78.93Zm.43,9.6a7.15,7.15,0,0,0,1.73-.67,32,32,0,0,0,5.2-3.32,28.49,28.49,0,0,0,4.8-4.77,2.54,2.54,0,0,0,.27.88.38.38,0,0,1,.06.19.61.61,0,0,1-.16.35,31.36,31.36,0,0,1-4.43,4.2,40.78,40.78,0,0,1-5.38,3.48,4,4,0,0,0-.92.69.31.31,0,0,1-.2.11.37.37,0,0,1-.2-.11A6.1,6.1,0,0,1,150.14,88.53Z"/><path d="M174.06,78.83a24.74,24.74,0,0,1-1,4.68,13.82,13.82,0,0,1-1.4,3.24,3.14,3.14,0,0,1-2.57,1.8,2.07,2.07,0,0,1-1.76-1.15,5.08,5.08,0,0,1-.69-2.75A6.54,6.54,0,0,1,168.79,80,7.47,7.47,0,0,1,174,78.07a6.4,6.4,0,0,1,4.84,1.77,5.31,5.31,0,0,1,1.46,3.88,5.56,5.56,0,0,1-1.53,4,7.91,7.91,0,0,1-4.14,2.19h-.09a.3.3,0,0,1-.27-.19,1.32,1.32,0,0,0-.48-.49A7.39,7.39,0,0,0,178.12,87a5.11,5.11,0,0,0,1.19-3.43,4.48,4.48,0,0,0-1.62-3.61,4.86,4.86,0,0,0-3.21-1.11Zm-1,0a6.06,6.06,0,0,0-3.7,1.66,5.74,5.74,0,0,0-1.46,2.21,5.42,5.42,0,0,0-.36,1.91,3.86,3.86,0,0,0,.61,2.34,1.24,1.24,0,0,0,1,.59c.62,0,1.21-.47,1.77-1.42a15.37,15.37,0,0,0,1.42-3.52A20.3,20.3,0,0,0,173.1,78.88Z"/><path d="M183.79,87.26a13.81,13.81,0,0,0,4.19-5.6,5.51,5.51,0,0,0,.49-1.94,4.84,4.84,0,0,1,1.21.53.29.29,0,0,1,.14.22.37.37,0,0,1-.12.25,2.29,2.29,0,0,0-.55.87,18.2,18.2,0,0,1-4.1,6,.35.35,0,0,1-.25.12.32.32,0,0,1-.18-.06A2.06,2.06,0,0,0,183.79,87.26Zm9.24-7a5.42,5.42,0,0,1,.64-.42.37.37,0,0,1,.15-.06s.09,0,.16.1a23.86,23.86,0,0,1,4.46,6.4.49.49,0,0,1,.06.17.22.22,0,0,1-.11.16,4.43,4.43,0,0,1-.65.41.25.25,0,0,1-.11.05s-.09-.05-.13-.14A22.39,22.39,0,0,0,193,80.31Z"/><path d="M202.73,83a32.71,32.71,0,0,0,3.71.16h5.72q2.51,0,3.87-.06c.17,0,.26.07.26.2V84c0,.15-.09.22-.26.22q-.94,0-2.37,0h-8.48l-2.05.15a.25.25,0,0,1-.26-.22A4.42,4.42,0,0,1,202.73,83Z"/><path d="M221.25,78.6c1,.07,2.13.11,3.46.11h6.35a1.84,1.84,0,0,0,.83-.15.46.46,0,0,1,.21,0,.48.48,0,0,1,.24.07,4.18,4.18,0,0,1,.64.61.28.28,0,0,1,.08.21.3.3,0,0,1-.11.24,1.54,1.54,0,0,0-.4.59A19,19,0,0,1,229,86.16a19.8,19.8,0,0,1-5.37,4.31.39.39,0,0,1-.23.07.33.33,0,0,1-.25-.1,2.48,2.48,0,0,0-.7-.5A19.16,19.16,0,0,0,226,87.71a20.38,20.38,0,0,0,2.2-2.13,17.52,17.52,0,0,0,3.51-6h-7c-1.18,0-2.2,0-3.06.1h-.07c-.14,0-.23-.09-.26-.27C221.27,79,221.25,78.71,221.25,78.6Zm10.86-2,.53-.38.08,0,.07,0a8,8,0,0,1,2,2.18.2.2,0,0,1,0,.08s0,.05-.06.09l-.43.36a.13.13,0,0,1-.08,0,.14.14,0,0,1-.12-.08A8,8,0,0,0,232.11,76.58Zm1.51-1.2.46-.36a.19.19,0,0,1,.1,0,.11.11,0,0,1,.07,0,7.85,7.85,0,0,1,2,2.15.18.18,0,0,1,0,.09s0,.07-.07.1l-.42.36a.1.1,0,0,1-.08,0,.15.15,0,0,1-.1-.07A8.15,8.15,0,0,0,233.62,75.38Z"/><path d="M246.26,82.41a11.39,11.39,0,0,1-1.07,4.85A8.61,8.61,0,0,1,242,90.59a.59.59,0,0,1-.29.1.19.19,0,0,1-.14,0,2.31,2.31,0,0,0-.84-.46A9.19,9.19,0,0,0,243,88.63a6.93,6.93,0,0,0,1.25-1.73,9.87,9.87,0,0,0,.94-4.49h-3.74q-1.2,0-2.58.09a.32.32,0,0,1-.21,0,.51.51,0,0,1-.06-.18s0-.31-.07-.8c.94,0,1.92.07,2.92.07h7.68c1.11,0,2.17,0,3.18-.07.14,0,.2.08.2.25v.57c0,.12-.07.18-.22.18-1.09,0-2.13-.06-3.14-.06Zm-5.53-4.92c.88.05,1.78.07,2.71.07h3.61q1.9,0,2.88-.06h0c.1,0,.14.07.14.22v.52c0,.16-.07.24-.22.24-.64,0-1.59,0-2.85,0h-3.61c-1.07,0-1.89,0-2.44,0h-.06c-.1,0-.15-.06-.16-.2Z"/><path d="M264.53,83.08v5.26c0,.55,0,1.33,0,2.35q0,.18-.15.18l-.32,0-.35,0c-.11,0-.16-.06-.16-.18,0-.76.05-1.54.05-2.32V83.86a24.92,24.92,0,0,1-4.61,3.3.28.28,0,0,1-.12,0,.15.15,0,0,1-.13-.06,1.8,1.8,0,0,0-.65-.45A21.54,21.54,0,0,0,265,81.21a7,7,0,0,0,1.1-1.71,4.33,4.33,0,0,1,1,.61.27.27,0,0,1,.1.19.23.23,0,0,1-.15.19,2.14,2.14,0,0,0-.78.69C265.6,82,265,82.59,264.53,83.08Z"/><path d="M274.73,83a32.71,32.71,0,0,0,3.71.16h5.72q2.5,0,3.87-.06c.17,0,.26.07.26.2V84c0,.15-.09.22-.26.22q-.94,0-2.37,0h-8.48l-2.05.15a.25.25,0,0,1-.26-.22A4.42,4.42,0,0,1,274.73,83Z"/><path d="M302.23,87.35h-8.12l-2.35,0c-.09,0-.13,0-.13-.12v-.57c0-.08,0-.12.13-.12l2.35,0h8.12a6.25,6.25,0,0,0-.12-1.1,7,7,0,0,1,1,.09c.11,0,.17.08.17.16a1.13,1.13,0,0,1-.1.33,1,1,0,0,0-.08.52h1.85l2.36,0c.09,0,.13,0,.13.12v.57c0,.08,0,.12-.13.12l-2.36,0h-1.85V89.9a1.34,1.34,0,0,1-.46,1.17,3.81,3.81,0,0,1-1.89.29h-.31c-.13,0-.22,0-.24,0a.56.56,0,0,1-.1-.23,2.1,2.1,0,0,0-.28-.62,13.78,13.78,0,0,0,1.53.08c.59,0,.89-.24.89-.74Zm-3.31-7.84V78.13h-4.39l-2.43,0c-.09,0-.13,0-.13-.12v-.55c0-.09,0-.14.13-.14l2.43,0h4.39a10.16,10.16,0,0,0-.12-2,9,9,0,0,1,.93.09c.12,0,.17.06.17.14a.86.86,0,0,1-.08.32,5.86,5.86,0,0,0-.09,1.43h4.82l2.44,0c.08,0,.12.05.12.14V78a.11.11,0,0,1-.12.12l-2.44,0h-4.82v1.38h2.56l2.55,0c.09,0,.13,0,.13.12l0,1.62v2.16L305,85c0,.08,0,.12-.13.12l-2.55,0h-5.58l-2.56,0c-.08,0-.13,0-.13-.12l0-1.63V81.22l0-1.62c0-.08.05-.12.13-.12l2.56,0Zm0,2.38V80.2h-4.07v1.69Zm0,.67h-4.07v1.87h4.07ZM296.31,88a12.69,12.69,0,0,1,1.77,1.89.14.14,0,0,1,0,.09s-.06.1-.18.17l-.26.17a.62.62,0,0,1-.24.12s-.06,0-.1-.08a10.59,10.59,0,0,0-1.72-1.93.12.12,0,0,1-.06-.09s.07-.09.2-.16L296,88a.39.39,0,0,1,.19-.09A.21.21,0,0,1,296.31,88Zm3.42-6.07h4.39V80.2h-4.39Zm0,.67v1.87h4.39V82.56Z"/><path d="M312.67,76.33h1.93l1.73,0a.11.11,0,0,1,.12.12l0,1.71v2.19l0,1.72a.11.11,0,0,1-.12.12l-1.73,0h-3.11v5.53l0,3.53a.11.11,0,0,1-.12.12h-.65a.11.11,0,0,1-.12-.12l0-3.53V80l0-3.54a.11.11,0,0,1,.12-.12Zm-1.18,2.48h4.14V77h-4.14Zm0,.67v2h4.14v-2Zm12.05,2.64h-3.26l-1.89,0c-.07,0-.11,0-.11-.12l0-1.65V78.06l0-1.64c0-.08,0-.12.11-.12l1.89,0h2.09l1.89,0a.11.11,0,0,1,.12.12l0,2.5V87l0,2.43a2.8,2.8,0,0,1-.11.89,1.11,1.11,0,0,1-.34.39,3.3,3.3,0,0,1-1.82.33h-.34a.5.5,0,0,1-.28-.05.72.72,0,0,1-.1-.24,2.36,2.36,0,0,0-.28-.64,8,8,0,0,0,1.36.1,1.25,1.25,0,0,0,.88-.21,1.12,1.12,0,0,0,.17-.73Zm0-3.31V77h-4.43v1.77Zm0,2.63v-2h-4.43v2Z"/><path d="M335.74,77.75v-1a6,6,0,0,0-.13-1.46,7.65,7.65,0,0,1,.94.09c.13,0,.2.06.2.13a1,1,0,0,1-.12.34,3.21,3.21,0,0,0-.08.9v1h4l2.54,0a.12.12,0,0,1,.13.13v.59a.12.12,0,0,1-.13.13l-2.54,0h-10v2.7a28.89,28.89,0,0,1-.38,5.28A15,15,0,0,1,328.41,91c-.07.12-.11.18-.14.18s-.1,0-.21-.15a1.46,1.46,0,0,0-.53-.37,12.94,12.94,0,0,0,1.78-4.53,27.92,27.92,0,0,0,.35-5l0-3.31c0-.09,0-.13.12-.13l2.6,0ZM333,90.49v.81a.1.1,0,0,1-.11.11h-.6c-.08,0-.12,0-.12-.11l0-2.87V87.19l0-1.75c0-.08,0-.13.12-.13l2.44,0H336v-4a13.49,13.49,0,0,0-.1-2.06c.33,0,.63.05.89.09s.2.07.2.15a2.13,2.13,0,0,1-.11.34,6.48,6.48,0,0,0-.08,1.46v.54h3.68l2,0c.09,0,.14,0,.14.12v.57c0,.08-.05.12-.14.12l-2,0h-3.68v2.79h2.28l2.44,0a.12.12,0,0,1,.13.13l0,1.53v1.39l0,2.83c0,.09,0,.13-.13.13h-.61c-.08,0-.12,0-.12-.13v-.7Zm0-.74h7.77V86.07H333Z"/><path d="M347.92,87a2.47,2.47,0,0,1,2.47,2.45,2.32,2.32,0,0,1-.83,1.8,2.36,2.36,0,0,1-1.64.64,2.38,2.38,0,0,1-1.82-.81,2.35,2.35,0,0,1-.64-1.63,2.32,2.32,0,0,1,.82-1.81A2.37,2.37,0,0,1,347.92,87Zm0,.79a1.61,1.61,0,0,0-1.23.55,1.58,1.58,0,0,0-.44,1.1,1.64,1.64,0,0,0,.56,1.25,1.6,1.6,0,0,0,1.11.43,1.65,1.65,0,0,0,1.25-.55,1.69,1.69,0,0,0,.43-1.13,1.58,1.58,0,0,0-.56-1.22A1.6,1.6,0,0,0,347.92,87.76Z"/><path d="M80.87,125.81c.28-.92.5-1.76.68-2.54a6.21,6.21,0,0,0,.16-1.34c0-.15,0-.29,0-.42a5.44,5.44,0,0,1,1.22.45.22.22,0,0,1,.13.2.26.26,0,0,1-.09.19,1.2,1.2,0,0,0-.33.58c-.27,1-.54,1.92-.81,2.77a13.87,13.87,0,0,1,1.84-.16,2,2,0,0,1,1.78.7,3.43,3.43,0,0,1,.49,2,13.71,13.71,0,0,1-1,5.78,2,2,0,0,1-1.87,1.37,5.26,5.26,0,0,1-1.87-.33.21.21,0,0,1-.16-.22,2.42,2.42,0,0,0-.18-.87,5.3,5.3,0,0,0,2,.49,1.34,1.34,0,0,0,1.21-.92,12.82,12.82,0,0,0,.86-5.28,2.77,2.77,0,0,0-.32-1.6,1.2,1.2,0,0,0-1-.39,15.18,15.18,0,0,0-2.07.19,52,52,0,0,1-3.67,8.57.15.15,0,0,1-.14.1s-.07,0-.09,0l-.31-.21-.27-.2a.09.09,0,0,1-.06-.08.3.3,0,0,1,0-.13,43.74,43.74,0,0,0,3.53-7.88l-2.36.36a3.6,3.6,0,0,0-1,.28.56.56,0,0,1-.24.07.24.24,0,0,1-.21-.14,5.44,5.44,0,0,1-.34-1l.43,0a12.08,12.08,0,0,0,1.39-.09C78.86,126.09,79.72,126,80.87,125.81Zm6.46-.71a4.44,4.44,0,0,1,.63-.41l.08,0a.31.31,0,0,1,.17.07,9.67,9.67,0,0,1,2.85,4.36.49.49,0,0,1,0,.14.18.18,0,0,1-.06.14,2.76,2.76,0,0,1-.56.35.27.27,0,0,1-.14,0q-.12,0-.15-.15A9.7,9.7,0,0,0,87.33,125.1Z"/><path d="M97.13,125a3.32,3.32,0,0,1,1,.48.27.27,0,0,1,.15.23.25.25,0,0,1-.07.16,1.78,1.78,0,0,0-.29.83,29.23,29.23,0,0,0-.56,4.48,9.81,9.81,0,0,1,3.35-2.7,7,7,0,0,1,3-.79,3.93,3.93,0,0,1,2.9,1,3.08,3.08,0,0,1,.88,2.28q0,2.4-2.72,3.76a12.89,12.89,0,0,1-4.24,1.14h-.1a.3.3,0,0,1-.28-.15,2.29,2.29,0,0,0-.65-.67,12.85,12.85,0,0,0,4.78-1.13,3.42,3.42,0,0,0,2.2-3,2.19,2.19,0,0,0-.78-1.81,3.32,3.32,0,0,0-2.1-.58,6,6,0,0,0-2.92.86,10.6,10.6,0,0,0-2.47,1.94,6,6,0,0,0-.84,1.1.14.14,0,0,1-.12.09l-.11,0-.58-.27a.23.23,0,0,1-.1-.22A51,51,0,0,1,97,126.4a10.07,10.07,0,0,0,.11-1.25Zm1.48-3.27a3.63,3.63,0,0,1,.46-.58.26.26,0,0,1,.14-.07l.09,0a12.29,12.29,0,0,1,3.19,2,.15.15,0,0,1,.07.12.22.22,0,0,1,0,.1,6.15,6.15,0,0,1-.47.56.16.16,0,0,1-.1.05.17.17,0,0,1-.13-.07A11,11,0,0,0,98.61,121.69Z"/><path d="M117.61,124.74a19.34,19.34,0,0,0,3-.77l.09,0c.06,0,.1,0,.11.12,0,.29.05.47.05.55s-.05.22-.14.25a29.23,29.23,0,0,1-3.31.77,76.23,76.23,0,0,1-3.5,9.7c0,.07-.07.1-.12.1l-.09,0-.69-.31A.1.1,0,0,1,113,135a.26.26,0,0,1,0-.11,53.13,53.13,0,0,0,3.42-9.14,31.66,31.66,0,0,1-3.8.23c-.15,0-.24,0-.26-.14,0-.29-.08-.55-.1-.79.33,0,.69.05,1.06.05a24.87,24.87,0,0,0,3.35-.25c.19-.73.36-1.47.5-2.24a6.16,6.16,0,0,0,.16-1.34,3.28,3.28,0,0,0,0-.34,4.31,4.31,0,0,1,1.27.36.17.17,0,0,1,.1.17.36.36,0,0,1-.14.27,1.72,1.72,0,0,0-.3.71c-.09.28-.19.68-.33,1.21S117.67,124.5,117.61,124.74Zm1.39,7.4a2.89,2.89,0,0,1,.5,0h.15c.09,0,.15,0,.16.16a2.14,2.14,0,0,0,1.06,1.89,6,6,0,0,0,2.56.4,14.84,14.84,0,0,0,2.53-.22h.1c.07,0,.11,0,.12.13a4.72,4.72,0,0,1,0,.64.17.17,0,0,1-.17.19,13,13,0,0,1-2.29.2,9.91,9.91,0,0,1-2.44-.23,3.37,3.37,0,0,1-1.45-.73A3,3,0,0,1,119,132.14Zm1.32-3.87a5.78,5.78,0,0,1,0-.71.21.21,0,0,1,.2-.22,12.16,12.16,0,0,1,2.81-.36,21.85,21.85,0,0,1,2.53.15.23.23,0,0,1,.21.21s0,.09,0,.14a3.91,3.91,0,0,1,0,.41c0,.12,0,.18-.13.18h-.06a18.1,18.1,0,0,0-2.58-.17A11.84,11.84,0,0,0,120.32,128.27Zm3.06-5.71.53-.37.07,0a.09.09,0,0,1,.07,0,7.69,7.69,0,0,1,2,2.17.12.12,0,0,1,0,.08s0,0-.06.08l-.43.36a.15.15,0,0,1-.08.05.17.17,0,0,1-.12-.08A8.23,8.23,0,0,0,123.38,122.56Zm1.51-1.11.46-.36a.23.23,0,0,1,.1,0l.06,0a8.65,8.65,0,0,1,2,2.07.16.16,0,0,1,0,.09.15.15,0,0,1-.06.11l-.42.36a.13.13,0,0,1-.08,0,.13.13,0,0,1-.1-.07A8.47,8.47,0,0,0,124.89,121.45Z"/><path d="M132.26,122.11a4.44,4.44,0,0,1,1.05.43c.13.07.19.14.19.21a.56.56,0,0,1-.12.32,2.09,2.09,0,0,0-.33.74,26.61,26.61,0,0,0-.88,6.36,16.75,16.75,0,0,0,.3,3.45c.17-.4.41-.94.71-1.62s.55-1.19.7-1.54a2.38,2.38,0,0,0,.36.55.27.27,0,0,1,.07.17.74.74,0,0,1-.09.27c-.41.94-.81,1.91-1.19,2.91a.91.91,0,0,0-.09.41l0,.36a.14.14,0,0,1-.09.13,2,2,0,0,1-.61.14c-.08,0-.14-.05-.19-.15a10.86,10.86,0,0,1-.61-2.54,18.4,18.4,0,0,1-.19-2.63,31.26,31.26,0,0,1,.79-6.23,8,8,0,0,0,.18-1.54Zm4,9,.75,0c.09,0,.13,0,.13.14,0,1.38,1.14,2.06,3.31,2.06a26.3,26.3,0,0,0,3.58-.25h.07c.06,0,.1.05.11.16a6.06,6.06,0,0,1,0,.62c0,.09,0,.14,0,.16a.34.34,0,0,1-.17.05,32.4,32.4,0,0,1-3.33.18,8.79,8.79,0,0,1-2.3-.24,3.18,3.18,0,0,1-1.37-.77A2.72,2.72,0,0,1,136.22,131.16Zm.59-6v-.72a.23.23,0,0,1,.21-.25,22.14,22.14,0,0,1,3.79-.33c1,0,1.84,0,2.5.09.15,0,.22.08.22.18v.62c0,.1,0,.15-.11.15h-.07c-.81-.06-1.72-.1-2.74-.1A22.52,22.52,0,0,0,136.81,125.18Z"/><path d="M152.89,126.21c1.29-.53,2.35-.94,3.17-1.23a10.45,10.45,0,0,1,3.51-.72,3.39,3.39,0,0,1,2.44.83,2.59,2.59,0,0,1,.82,2,2.81,2.81,0,0,1-1.41,2.6,5.83,5.83,0,0,1-3,.66,5,5,0,0,1-.74,0c-.14,0-.21-.05-.23-.12a2.57,2.57,0,0,0-.38-.82,9.9,9.9,0,0,0,1.34.12,4.28,4.28,0,0,0,2.49-.64,2.07,2.07,0,0,0,.91-1.81q0-2-2.31-2a9.36,9.36,0,0,0-3.09.61c-.42.15-1.5.58-3.26,1.3.77,2.17,1.76,5,2.95,8.44a.33.33,0,0,1,0,.14c0,.06,0,.11-.13.15a3.37,3.37,0,0,1-.7.23h-.05s-.07,0-.09-.1c-1-3.18-1.94-6-2.85-8.51l-2.26,1a3.78,3.78,0,0,0-.94.58.31.31,0,0,1-.51,0,4.28,4.28,0,0,1-.66-1,10.11,10.11,0,0,0,1.83-.52c.61-.22,1.35-.52,2.24-.9-.37-1-.63-1.71-.76-2a8.17,8.17,0,0,0-.81-1.56,8.44,8.44,0,0,1,1.28-.12c.14,0,.22.08.22.24v.05a.31.31,0,0,0,0,.1,1.42,1.42,0,0,0,0,.34,5.79,5.79,0,0,0,.27.94l.35,1Zm2.3-4.5a4,4,0,0,1,.64-.48.24.24,0,0,1,.11-.06.22.22,0,0,1,.12.06A9.14,9.14,0,0,1,158,123a.14.14,0,0,1,.06.1.15.15,0,0,1-.06.11,4.12,4.12,0,0,1-.52.46.17.17,0,0,1-.1,0,.16.16,0,0,1-.1,0A7.17,7.17,0,0,0,155.19,121.71Z"/><path d="M173.37,125c-.26-.59-.54-1.3-.85-2.13a4.57,4.57,0,0,0-.72-1.42,5.65,5.65,0,0,1,1.08-.11H173c.21,0,.32.11.32.24v.26a.91.91,0,0,0,0,.17,5.72,5.72,0,0,0,.31,1.3c.25.69.46,1.19.61,1.52a19.32,19.32,0,0,0,4-1.15l.09,0a.12.12,0,0,1,.13.09,2.84,2.84,0,0,1,.18.6.18.18,0,0,1,0,.06.12.12,0,0,1-.1.13,27,27,0,0,1-3.94,1.13,18.09,18.09,0,0,0,3.05,4.59,3.33,3.33,0,0,0,.5.39c.07.06.1.11.1.15a.35.35,0,0,1,0,.16,4.86,4.86,0,0,1-.38.54c-.08.1-.15.14-.2.14a.33.33,0,0,1-.18-.08c-.1-.07-.3-.19-.61-.36a9.27,9.27,0,0,0-4.21-1,4.6,4.6,0,0,0-2.69.66,1.75,1.75,0,0,0-.77,1.48c0,.88.58,1.54,1.74,2a9.17,9.17,0,0,0,3.23.5,12.85,12.85,0,0,0,2.5-.22,3.12,3.12,0,0,1-.19.9.23.23,0,0,1-.19.15,20,20,0,0,1-2.1.1,9,9,0,0,1-4.28-.89,2.78,2.78,0,0,1-1.62-2.49,2.57,2.57,0,0,1,1.47-2.38,6.14,6.14,0,0,1,2.9-.61,9.42,9.42,0,0,1,4.08.91,16.58,16.58,0,0,1-3-4.5,31.14,31.14,0,0,1-4,.5q-.57,0-1.44,0c-.09,0-.16-.06-.2-.18a6.71,6.71,0,0,1-.14-.76c.36,0,.68,0,1,0h.66A26.33,26.33,0,0,0,173.37,125Z"/><path d="M187.66,121.58a7,7,0,0,1,1.27.24c.16.05.24.13.24.25a2.62,2.62,0,0,1-.14.41,7.38,7.38,0,0,0-.22,1.74q-.28,5.4-.28,7.69a3.36,3.36,0,0,0,.6,2.33,2.23,2.23,0,0,0,1.67.52c2.26,0,4.4-1.13,6.4-3.39a2.79,2.79,0,0,0,.28.83.49.49,0,0,1,.05.18c0,.06-.05.14-.16.26a9.57,9.57,0,0,1-6.78,3.05,2.84,2.84,0,0,1-2.39-.93,4.42,4.42,0,0,1-.66-2.69q0-1.26.27-7.95c0-.38,0-.69,0-1A6.46,6.46,0,0,0,187.66,121.58Z"/><path d="M203.18,123.17a4.82,4.82,0,0,1,1.23.3.16.16,0,0,1,.12.15.69.69,0,0,1-.05.26,4.83,4.83,0,0,0-.18,1.61,34.81,34.81,0,0,0,.23,4.08,8.85,8.85,0,0,0,.87,3.05c.37.65.75,1,1.15,1s.81-.33,1.2-1a8.27,8.27,0,0,0,.81-2,2.15,2.15,0,0,0,.51.75.31.31,0,0,1,.11.22.5.5,0,0,1,0,.12,6.18,6.18,0,0,1-1.11,2,2,2,0,0,1-1.5.82c-.8,0-1.47-.56-2-1.67a10.29,10.29,0,0,1-.94-3.34,34.86,34.86,0,0,1-.27-4.7A7.6,7.6,0,0,0,203.18,123.17Zm9.16,2.1a5.58,5.58,0,0,1,.61-.4l.14,0a.19.19,0,0,1,.1,0,10.21,10.21,0,0,1,3.49,6.24v0a.18.18,0,0,1-.11.15,3.7,3.7,0,0,1-.68.31h-.06q-.11,0-.12-.12A10.13,10.13,0,0,0,212.34,125.27Z"/><path d="M226.58,125.41c.06-.54.11-1.12.14-1.74,0-.25,0-.47,0-.68a9.49,9.49,0,0,0-.11-1.45,4.45,4.45,0,0,1,1.22.24c.13,0,.19.11.19.21a.54.54,0,0,1-.09.27,3.15,3.15,0,0,0-.24,1.26c0,.75-.09,1.38-.16,1.89h3.17l2.18,0a.45.45,0,0,1,.21,0s0,.08,0,.17c0,.27,0,.79,0,1.55a26.22,26.22,0,0,1-.69,5.63,4.18,4.18,0,0,1-.6,1.46,1.83,1.83,0,0,1-.87.59,5.77,5.77,0,0,1-1.89.23.22.22,0,0,1-.24-.15,1.71,1.71,0,0,0-.47-.8l.69,0a4.58,4.58,0,0,0,1.51-.2,1.11,1.11,0,0,0,.6-.49,4.56,4.56,0,0,0,.35-1.06,28.25,28.25,0,0,0,.63-6.09h-4.66a14.13,14.13,0,0,1-1.64,5.08,9.5,9.5,0,0,1-1.7,2.1,12,12,0,0,1-2.1,1.61.25.25,0,0,1-.16.05.21.21,0,0,1-.16-.07,1.57,1.57,0,0,0-.81-.44A9.81,9.81,0,0,0,225,131a12.45,12.45,0,0,0,1.51-4.7h-2.23c-.87,0-1.69,0-2.47.07-.1,0-.17-.07-.2-.21a5.4,5.4,0,0,1-.05-.79c.84,0,1.74.07,2.7.07Z"/><path d="M239.73,123.6c1,.07,2.13.11,3.45.11h6.35a1.84,1.84,0,0,0,.83-.15.5.5,0,0,1,.21,0,.49.49,0,0,1,.25.07,4.7,4.7,0,0,1,.64.61.32.32,0,0,1,.08.21.31.31,0,0,1-.12.24,1.52,1.52,0,0,0-.39.59,19,19,0,0,1-3.54,5.93,19.65,19.65,0,0,1-5.37,4.32.43.43,0,0,1-.23.07.35.35,0,0,1-.26-.1,2.34,2.34,0,0,0-.7-.51,18.31,18.31,0,0,0,3.52-2.22,19.69,19.69,0,0,0,2.2-2.14,17.39,17.39,0,0,0,3.52-6h-7c-1.18,0-2.2,0-3.06.1H240c-.14,0-.22-.09-.25-.27C239.74,124,239.73,123.71,239.73,123.6Z"/><path d="M263.85,128.22v5.33h2.47c.52,0,1.36,0,2.51,0,.1,0,.15.06.17.18v.47c0,.14-.07.22-.17.22-1.17,0-2,0-2.49,0h-5.92c-.47,0-1.2,0-2.2.07q-.15,0-.18-.18c0-.25,0-.5,0-.73.57,0,1.37.05,2.41.05h2.52v-5.31h-1.36l-2.06,0a.21.21,0,0,1-.24-.18q0-.39,0-.72c.73,0,1.51.07,2.32.07h3.49c.34,0,.77,0,1.28,0l1.14,0a.17.17,0,0,1,.19.18v.52q0,.18-.21.18c-1.16,0-2,0-2.4,0Z"/><path d="M274.34,124.57h.17a14.7,14.7,0,0,0,2-.19q5.66-.89,11.09-1.55h.07a.19.19,0,0,1,.2.13,2.38,2.38,0,0,1,.09.68c0,.11-.07.17-.2.18a7.84,7.84,0,0,0-2.79.6,8.7,8.7,0,0,0-3.4,2.55,5.23,5.23,0,0,0-1.21,3.25,3.49,3.49,0,0,0,2,3.31,9.54,9.54,0,0,0,3.35.86c.17,0,.25.06.25.14a3.14,3.14,0,0,1-.07.65c0,.15-.09.22-.2.22h-.07A8.54,8.54,0,0,1,281.2,134a4.28,4.28,0,0,1-1.75-3.62,5.72,5.72,0,0,1,1.4-3.73,9.65,9.65,0,0,1,3.35-2.52l0,0c-3.18.48-5.79.93-7.83,1.37a4.17,4.17,0,0,0-1,.29.83.83,0,0,1-.33.12.22.22,0,0,1-.23-.14A4.88,4.88,0,0,1,274.34,124.57Zm11,2.47.55-.38a.11.11,0,0,1,.07,0l.07,0a7.87,7.87,0,0,1,2,2.18s0,0,0,.07a.21.21,0,0,1-.05.09l-.43.36a.12.12,0,0,1-.09,0s-.07,0-.11-.08A8,8,0,0,0,285.38,127Zm1.53-1.12.46-.36a.16.16,0,0,1,.1,0,.07.07,0,0,1,.06,0,8.48,8.48,0,0,1,2,2.07.19.19,0,0,1,0,.09.15.15,0,0,1-.06.11l-.42.36a.11.11,0,0,1-.07,0,.15.15,0,0,1-.1-.07A8.65,8.65,0,0,0,286.91,125.92Z"/><path d="M300,124.21c0-.41,0-1,0-1.72a5.52,5.52,0,0,0-.2-1.17,6,6,0,0,1,1.21.18c.17,0,.25.13.25.24a.57.57,0,0,1-.13.29,1,1,0,0,0-.14.46c0,.63,0,1.19,0,1.68,1.67-.06,3.62-.1,5.86-.1a.15.15,0,0,1,.16.16v.58c0,.11-.07.17-.21.17-.83,0-1.66,0-2.49,0-1,0-2.11,0-3.32.07,0,1.61,0,2.85,0,3.69a9.24,9.24,0,0,1,.21,1.92,5.82,5.82,0,0,1-3.54,5.5.84.84,0,0,1-.32.1.37.37,0,0,1-.24-.12,1.84,1.84,0,0,0-.61-.4q3.66-1.51,3.85-4.73a2.17,2.17,0,0,1-2.06,1.11,2.2,2.2,0,0,1-1.68-.67,2.5,2.5,0,0,1-.64-1.8,2.25,2.25,0,0,1,.84-1.8,2.31,2.31,0,0,1,1.53-.57,2.21,2.21,0,0,1,1.76.69c0-.32,0-.84,0-1.55s0-1,0-1.32q-3.69.18-6.78.54a2.59,2.59,0,0,0-.52.12,1.18,1.18,0,0,1-.26.06.17.17,0,0,1-.17-.14,5.5,5.5,0,0,1-.24-1h.4c.48,0,1.11,0,1.88-.1Q297.6,124.32,300,124.21ZM298.34,128a1.58,1.58,0,0,0-1.2.5,1.68,1.68,0,0,0-.4,1.13,1.66,1.66,0,0,0,.51,1.29,1.51,1.51,0,0,0,1.05.37,1.73,1.73,0,0,0,1.39-.61,1.67,1.67,0,0,0,.42-1.1,1.45,1.45,0,0,0-.57-1.19A1.84,1.84,0,0,0,298.34,128Z"/><path d="M311.92,132a2.47,2.47,0,0,1,2.47,2.45,2.32,2.32,0,0,1-.83,1.8,2.36,2.36,0,0,1-1.64.64,2.38,2.38,0,0,1-1.82-.81,2.35,2.35,0,0,1-.64-1.63,2.32,2.32,0,0,1,.82-1.81A2.37,2.37,0,0,1,311.92,132Zm0,.79a1.61,1.61,0,0,0-1.23.55,1.58,1.58,0,0,0-.44,1.1,1.64,1.64,0,0,0,.56,1.25,1.6,1.6,0,0,0,1.11.43,1.65,1.65,0,0,0,1.25-.55,1.69,1.69,0,0,0,.43-1.13,1.58,1.58,0,0,0-.56-1.22A1.6,1.6,0,0,0,311.92,132.76Z"/></g></svg>