<svg id="レイヤー_1" data-name="レイヤー 1" xmlns="http://www.w3.org/2000/svg" viewBox="0 0 50 50"><defs><style>.cls-1{fill:none;stroke:#000;stroke-miterlimit:10;}</style></defs><title>flower02</title><ellipse class="cls-1" cx="25" cy="10.31" rx="2.94" ry="8.81"/><ellipse class="cls-1" cx="25" cy="39.69" rx="2.94" ry="8.81"/><ellipse class="cls-1" cx="39.69" cy="25" rx="8.81" ry="2.94"/><ellipse class="cls-1" cx="10.31" cy="25" rx="8.81" ry="2.94"/><ellipse class="cls-1" cx="37.61" cy="17.47" rx="8.81" ry="2.94" transform="translate(-3.64 21.74) rotate(-30.82)"/><ellipse class="cls-1" cx="12.39" cy="32.53" rx="8.81" ry="2.94" transform="translate(-14.92 10.94) rotate(-30.82)"/><ellipse class="cls-1" cx="37.79" cy="32.23" rx="2.94" ry="8.81" transform="translate(-8.87 49.26) rotate(-60.51)"/><ellipse class="cls-1" cx="12.21" cy="17.77" rx="2.94" ry="8.81" transform="translate(-9.27 19.66) rotate(-60.51)"/><ellipse class="cls-1" cx="32.23" cy="12.21" rx="8.81" ry="2.94" transform="translate(5.73 34.26) rotate(-60.51)"/><ellipse class="cls-1" cx="17.77" cy="37.79" rx="8.81" ry="2.94" transform="translate(-23.87 34.66) rotate(-60.51)"/><ellipse class="cls-1" cx="32.36" cy="37.71" rx="2.94" ry="8.81" transform="translate(-14.54 21.31) rotate(-30.09)"/><ellipse class="cls-1" cx="17.64" cy="12.29" rx="2.94" ry="8.81" transform="translate(-3.79 10.5) rotate(-30.09)"/><circle class="cls-1" cx="25" cy="25" r="5.9"/></svg>