<svg xmlns="http://www.w3.org/2000/svg" viewBox="0 0 141.73 141.73"><defs><style>.cls-1{fill:none;stroke:#231815;stroke-miterlimit:10;}</style></defs><title>flower</title><g id="レイヤー_1" data-name="レイヤー 1"><circle class="cls-1" cx="70.87" cy="70.87" r="17.46"/><ellipse class="cls-1" cx="70.28" cy="114.51" rx="6.4" ry="26.19"/><ellipse class="cls-1" cx="87.64" cy="111.07" rx="6.4" ry="26.19" transform="matrix(0.92, -0.38, 0.38, 0.92, -35.83, 41.99)"/><ellipse class="cls-1" cx="101.71" cy="101.71" rx="6.4" ry="26.19" transform="translate(-42.13 101.71) rotate(-45)"/><ellipse class="cls-1" cx="114.51" cy="70.28" rx="26.19" ry="6.4"/><ellipse class="cls-1" cx="111.23" cy="86.8" rx="6.4" ry="26.19" transform="translate(-11.53 156.35) rotate(-67.5)"/><ellipse class="cls-1" cx="111.57" cy="53.58" rx="26.19" ry="6.4" transform="translate(-12.01 46.77) rotate(-22.5)"/><ellipse class="cls-1" cx="102.21" cy="39.51" rx="26.19" ry="6.4" transform="translate(2 83.85) rotate(-45)"/><ellipse class="cls-1" cx="87.3" cy="29.99" rx="26.19" ry="6.4" transform="matrix(0.38, -0.92, 0.92, 0.38, 26.19, 99.17)"/><ellipse class="cls-1" cx="54.08" cy="29.65" rx="6.4" ry="26.19" transform="translate(-7.23 22.95) rotate(-22.5)"/><ellipse class="cls-1" cx="40.02" cy="39.01" rx="6.4" ry="26.19" transform="translate(-15.87 39.72) rotate(-45)"/><ellipse class="cls-1" cx="30.49" cy="53.92" rx="6.4" ry="26.19" transform="translate(-30.99 61.46) rotate(-67.5)"/><ellipse class="cls-1" cx="30.15" cy="87.14" rx="26.19" ry="6.4" transform="matrix(0.92, -0.38, 0.38, 0.92, -31.05, 18.17)"/><ellipse class="cls-1" cx="39.51" cy="101.21" rx="26.19" ry="6.4" transform="translate(-59.99 57.58) rotate(-45)"/><ellipse class="cls-1" cx="53.26" cy="111.89" rx="26.19" ry="6.4" transform="translate(-70.5 118.27) rotate(-67.5)"/><ellipse class="cls-1" cx="27.22" cy="70.28" rx="26.19" ry="6.4"/><ellipse class="cls-1" cx="70.28" cy="27.22" rx="6.4" ry="26.19"/></g></svg>