<svg id="レイヤー_1" data-name="レイヤー 1" xmlns="http://www.w3.org/2000/svg" viewBox="0 0 402 425"><defs><style>.cls-1{fill:#fff;}.cls-1,.cls-2,.cls-3,.cls-4,.cls-5,.cls-6,.cls-7{stroke:#fff;}.cls-1,.cls-2,.cls-3,.cls-4,.cls-7{stroke-miterlimit:10;}.cls-1,.cls-7{stroke-width:5px;}.cls-2,.cls-3,.cls-4,.cls-5,.cls-6,.cls-7{fill:none;}.cls-2{stroke-width:15px;}.cls-3{stroke-width:8px;}.cls-4,.cls-5,.cls-6{stroke-width:4px;}.cls-5,.cls-6{stroke-linejoin:bevel;}.cls-6,.cls-7{stroke-linecap:round;}</style></defs><title>logo_white</title><path class="cls-1" d="M161,251.5H320.5s-6,169-111,169H157"/><path class="cls-1" d="M166.5,251.5H7s6,169,111,169h52.5"/><path class="cls-2" d="M306.5,306.5c45.05-44.67,134-29,51,53-48,41-87,8-69,50"/><path class="cls-3" d="M171,254c61.5-4.5,112.26-12.7,108.5-47.5-4-37-33-37-109-51"/><path class="cls-3" d="M170.75,155.5c-77.25-16-106.25-35-106.25-61,0-33.14,44-75,106-44,48.16,29.18,69,23,94,18"/><circle class="cls-4" cx="322.5" cy="69.5" r="15"/><ellipse class="cls-4" cx="322" cy="107" rx="5.5" ry="22.5"/><ellipse class="cls-4" cx="336.91" cy="104.04" rx="5.5" ry="22.5" transform="translate(-14.17 136.85) rotate(-22.5)"/><ellipse class="cls-4" cx="349" cy="96" rx="5.5" ry="22.5" transform="translate(34.34 274.9) rotate(-45)"/><ellipse class="cls-4" cx="360" cy="69" rx="22.5" ry="5.5"/><ellipse class="cls-4" cx="357.18" cy="83.19" rx="5.5" ry="22.5" transform="translate(143.64 381.35) rotate(-67.5)"/><ellipse class="cls-4" cx="357.47" cy="54.65" rx="22.5" ry="5.5" transform="translate(6.3 140.96) rotate(-22.5)"/><ellipse class="cls-4" cx="349.43" cy="42.56" rx="22.5" ry="5.5" transform="translate(72.25 259.55) rotate(-45)"/><ellipse class="cls-4" cx="336.62" cy="34.38" rx="22.5" ry="5.5" transform="translate(176.04 332.22) rotate(-67.5)"/><ellipse class="cls-4" cx="308.08" cy="34.09" rx="5.5" ry="22.5" transform="translate(10.41 120.49) rotate(-22.5)"/><ellipse class="cls-4" cx="295.99" cy="42.13" rx="5.5" ry="22.5" transform="translate(56.9 221.64) rotate(-45)"/><ellipse class="cls-4" cx="287.81" cy="54.94" rx="5.5" ry="22.5" transform="translate(126.91 299.81) rotate(-67.5)"/><ellipse class="cls-4" cx="287.52" cy="83.48" rx="22.5" ry="5.5" transform="matrix(0.92, -0.38, 0.38, 0.92, -10.06, 116.38)"/><ellipse class="cls-4" cx="295.56" cy="95.57" rx="22.5" ry="5.5" transform="translate(18.99 236.98) rotate(-45)"/><ellipse class="cls-4" cx="307.37" cy="104.75" rx="22.5" ry="5.5" transform="translate(92.97 348.64) rotate(-67.5)"/><ellipse class="cls-4" cx="285" cy="69" rx="22.5" ry="5.5"/><ellipse class="cls-4" cx="322" cy="32" rx="5.5" ry="22.5"/><path class="cls-5" d="M213.42,2.81C186.13,16.2,177.66,35,187.78,60.86"/><path class="cls-5" d="M213,3.14c-5.36,17.31-15.2,39.13-25.06,56.72,25.86-10.12,33.73-28.1,25-57.23"/><line class="cls-6" x1="216.02" y1="17.02" x2="206.39" y2="22.07"/><line class="cls-6" x1="200.37" y1="35.81" x2="215.74" y2="28.13"/><line class="cls-6" x1="196.03" y1="14.26" x2="203.56" y2="27.93"/><line class="cls-6" x1="186.22" y1="28.25" x2="196.71" y2="42.94"/><line class="cls-6" x1="193.5" y1="50.27" x2="209.56" y2="44.74"/><path class="cls-5" d="M156.6,83.11c-6.69-29.64-23-42.25-50.51-38.42"/><path class="cls-5" d="M156.37,82.66C140.78,73.43,121.84,58.79,107,45.12c3.84,27.49,19.5,39.32,49.85,37.64"/><line class="cls-6" x1="142.17" y1="82.34" x2="139.5" y2="71.8"/><line class="cls-6" x1="127.53" y1="62.76" x2="131.43" y2="79.5"/><line class="cls-6" x1="149.5" y1="63.54" x2="134.46" y2="67.69"/><line class="cls-6" x1="138.17" y1="50.75" x2="121.45" y2="57.54"/><line class="cls-6" x1="115.06" y1="52.72" x2="116.71" y2="69.63"/><path class="cls-5" d="M3.25,71C22.67,94.34,42.94,98.15,65.7,82.25"/><path class="cls-5" d="M3.66,71.26c18.08,1.14,41.61,5.58,61,11C48.77,59.54,29.44,56.12,3.17,71.4"/><line class="cls-6" x1="16.45" y1="65.1" x2="23.62" y2="73.27"/><line class="cls-6" x1="38.39" y1="75.89" x2="27.31" y2="62.75"/><line class="cls-6" x1="18.46" y1="85.17" x2="29.98" y2="74.65"/><line class="cls-6" x1="34.37" y1="91.42" x2="46.18" y2="77.78"/><line class="cls-6" x1="54.06" y1="79.17" x2="44.91" y2="64.86"/><line class="cls-7" x1="190.6" y1="115.51" x2="189.05" y2="126.27"/><path class="cls-5" d="M177.55,109.3c-5.11,30,5.19,47.84,32.08,54.76"/><path class="cls-5" d="M177.59,109.81c10.9,14.47,22.84,35.23,31.33,53.51,6.93-26.89-3-43.79-31.75-53.79"/><line class="cls-6" x1="196.68" y1="139.19" x2="199.44" y2="122.23"/><line class="cls-6" x1="176.66" y1="130.11" x2="192.15" y2="132"/><line class="cls-6" x1="182.27" y1="146.25" x2="200.32" y2="146.33"/><line class="cls-6" x1="204.39" y1="153.22" x2="209.3" y2="136.96"/><path class="cls-5" d="M73.08,188.11c29.9-5.46,43.17-21.26,40.47-48.89"/><path class="cls-5" d="M73.55,187.89c9.86-15.19,25.27-33.52,39.54-47.76C85.45,142.84,73,158,73.43,188.39"/><line class="cls-6" x1="74.45" y1="173.72" x2="85.09" y2="171.49"/><line class="cls-6" x1="94.61" y1="159.9" x2="77.73" y2="163.11"/><line class="cls-6" x1="92.93" y1="181.82" x2="89.4" y2="166.62"/><line class="cls-6" x1="106.18" y1="171.02" x2="100.08" y2="154.04"/><line class="cls-6" x1="105.16" y1="147.86" x2="88.2" y2="148.8"/><path class="cls-5" d="M314.22,151.48C285,160,273.44,177,279,204.24"/><path class="cls-5" d="M313.77,151.74c-8.26,16.12-21.71,35.92-34.45,51.55,27.21-5.51,38.06-21.87,34.52-52.06"/><line class="cls-6" x1="314.32" y1="165.93" x2="303.97" y2="169.24"/><line class="cls-6" x1="295.68" y1="181.74" x2="312.14" y2="176.82"/><line class="cls-6" x1="295.11" y1="159.76" x2="300.17" y2="174.52"/><line class="cls-6" x1="283.04" y1="171.85" x2="290.84" y2="188.13"/><line class="cls-6" x1="286.42" y1="194.8" x2="303.19" y2="192.12"/></svg>