<?xml version="1.0" encoding="utf-8"?>
<!-- Generator: Adobe Illustrator 24.0.2, SVG Export Plug-In . SVG Version: 6.00 Build 0)  -->
<svg version="1.1" id="レイヤー_1" xmlns="http://www.w3.org/2000/svg" xmlns:xlink="http://www.w3.org/1999/xlink" x="0px"
	 y="0px" viewBox="0 0 2195.1 2195.1" style="enable-background:new 0 0 2195.1 2195.1;" xml:space="preserve">
<style type="text/css">
	.st0{fill:none;}
	.st1{fill:#2062AF;}
	.st2{fill:#3C9CD7;}
	.st3{fill:#FFFFFF;}
	.st4{fill:url(#SVGID_1_);}
	.st5{fill:url(#SVGID_2_);}
	.st6{fill:url(#SVGID_3_);}
	.st7{opacity:5.000000e-02;enable-background:new    ;}
	.st8{fill:url(#SVGID_4_);}
</style>
<path class="st0" d="M-154.4-154.4h2500v2500h-2500V-154.4z"/>
<path class="st1" d="M1727.8,2015.4l-632.3,170.2l-632.3-170.2L317.4,434.7h1556.3L1727.8,2015.4z"/>
<path class="st2" d="M1095.5,562.8v1487.1l1.4,0.4l511.7-137.8l118.1-1349.7L1095.5,562.8L1095.5,562.8z"/>
<path d="M736.7,202.5v-94.1H874V5.5H633.8v291H874v-93.9H736.7z M1120.9,108.4h96V5.5H976.6v102.9c32.1,32.1,48.9,47.5,95.4,94
	c-27.2,0-95.4,0.1-95.4,0.1v93.9h240.2v-93.9L1120.9,108.4L1120.9,108.4z M1461.4,108.4h96V5.5h-240.2v102.9
	c32.1,32.1,48.9,47.5,95.4,94c-27.2,0-95.4,0.1-95.4,0.1v93.9h240.2v-93.9L1461.4,108.4L1461.4,108.4z"/>
<path class="st3" d="M1095,958l-452.5,188.5l15,186.6L1095,1146l465.4-199l19.3-190.9L1095,958L1095,958z"/>
<linearGradient id="SVGID_1_" gradientUnits="userSpaceOnUse" x1="-239.3268" y1="-30.7318" x2="-239.3268" y2="-111.5327" gradientTransform="matrix(4.6418 0 0 4.6418 1979.6133 1475.7013)">
	<stop  offset="0.387" style="stop-color:#D1D3D4;stop-opacity:0"/>
	<stop  offset="1" style="stop-color:#D1D3D4"/>
</linearGradient>
<path class="st4" d="M642.4,1146.5l15,186.6L1095,1146V958L642.4,1146.5z"/>
<linearGradient id="SVGID_2_" gradientUnits="userSpaceOnUse" x1="-138.3698" y1="-71.0327" x2="-138.3698" y2="-155.0217" gradientTransform="matrix(4.6418 0 0 4.6418 1979.6133 1475.7013)">
	<stop  offset="0.387" style="stop-color:#D1D3D4;stop-opacity:0"/>
	<stop  offset="1" style="stop-color:#D1D3D4"/>
</linearGradient>
<path class="st5" d="M1579.7,756.1L1095,958v188l465.4-199L1579.7,756.1z"/>
<linearGradient id="SVGID_3_" gradientUnits="userSpaceOnUse" x1="-287.9218" y1="5.3062" x2="-93.8568" y2="5.3062" gradientTransform="matrix(4.6418 0 0 4.6418 1979.6133 1475.7013)">
	<stop  offset="0" style="stop-color:#E8E7E5"/>
	<stop  offset="1" style="stop-color:#FFFFFF"/>
</linearGradient>
<path class="st6" d="M643.1,1146.5l15,186.6l671.3,2.1l-15,248.8l-220.9,62.2l-212.4-53.6l-12.9-154.4H671l25.7,298.1l398.9,118
	l396.8-115.8l51.5-591.9H643.1z"/>
<path class="st7" d="M1095,1146.5H642.4l15,186.6l437.5,1.4L1095,1146.5L1095,1146.5z M1095,1645.6l-2.1,0.6l-212.3-53.6
	l-12.9-154.4H670.3l25.7,298.1l398.9,118V1645.6z"/>
<linearGradient id="SVGID_4_" gradientUnits="userSpaceOnUse" x1="-296.8508" y1="-134.4608" x2="-86.1588" y2="-134.4608" gradientTransform="matrix(4.6418 0 0 4.6418 1979.6133 1475.7013)">
	<stop  offset="0" style="stop-color:#E8E7E5"/>
	<stop  offset="1" style="stop-color:#FFFFFF"/>
</linearGradient>
<path class="st8" d="M601.7,756.1h978L1560.4,947H625.3L601.7,756.1L601.7,756.1z"/>
<path class="st7" d="M1095,756.1H601.7L625.3,947H1095L1095,756.1L1095,756.1z"/>
</svg>
